<svg width="251" height="44" viewBox="0 0 251 44" fill="none" xmlns="http://www.w3.org/2000/svg">
<path d="M21.9998 42.8334C33.5058 42.8334 42.8332 33.506 42.8332 22.0001C42.8332 10.4941 33.5058 1.16675 21.9998 1.16675C10.4939 1.16675 1.1665 10.4941 1.1665 22.0001C1.1665 33.506 10.4939 42.8334 21.9998 42.8334Z" stroke="#0093B4" stroke-opacity="0.83" stroke-width="2"/>
<path d="M21.72 30V18.16L19.06 19.92V18.22L21.52 16.66H23.16V30H21.72Z" fill="#0093B4" fill-opacity="0.83"/>
<path d="M52.22 30V23.88L47.24 16.66H48.98L53.2 22.9L52.74 22.78L56.88 16.66H58.62L53.42 24.22L53.66 23.3V30H52.22ZM62.6609 30.3C61.1009 30.3 59.9409 29.84 59.1809 28.92C58.4343 27.9867 58.0609 26.6933 58.0609 25.04C58.0609 23.3067 58.4543 22.0067 59.2409 21.14C60.0409 20.2733 61.1676 19.84 62.6209 19.84C63.7009 19.84 64.5809 20.06 65.2609 20.5C65.9409 20.9267 66.4409 21.5333 66.7609 22.32C67.0809 23.0933 67.2409 24 67.2409 25.04C67.2409 26.68 66.8409 27.9667 66.0409 28.9C65.2543 29.8333 64.1276 30.3 62.6609 30.3ZM62.6409 28.98C63.4543 28.98 64.0876 28.8067 64.5409 28.46C64.9943 28.1 65.3143 27.6267 65.5009 27.04C65.7009 26.44 65.8009 25.7733 65.8009 25.04C65.8009 24.2533 65.7009 23.5733 65.5009 23C65.3009 22.4133 64.9676 21.96 64.5009 21.64C64.0476 21.32 63.4276 21.16 62.6409 21.16C61.8409 21.16 61.2143 21.3333 60.7609 21.68C60.3076 22.0267 59.9809 22.4933 59.7809 23.08C59.5943 23.6533 59.5009 24.3067 59.5009 25.04C59.5009 26.2133 59.7343 27.1667 60.2009 27.9C60.6676 28.62 61.4809 28.98 62.6409 28.98ZM74.1277 30.3C73.2477 30.3 72.4943 30.1467 71.8677 29.84C71.241 29.5333 70.761 29.0867 70.4277 28.5C70.1077 27.9133 69.9477 27.1933 69.9477 26.34V20.02H71.3877V26.02C71.3877 27.0333 71.6077 27.78 72.0477 28.26C72.501 28.7267 73.1943 28.96 74.1277 28.96C75.061 28.96 75.7477 28.7267 76.1877 28.26C76.641 27.78 76.8677 27.0333 76.8677 26.02V20.02H78.3077V26.34C78.3077 27.6067 77.941 28.5867 77.2077 29.28C76.4877 29.96 75.461 30.3 74.1277 30.3ZM81.5102 30V20.82C81.6702 20.7533 81.9768 20.64 82.4302 20.48C82.8968 20.32 83.4502 20.1733 84.0902 20.04C84.7435 19.9067 85.4168 19.84 86.1102 19.84C86.2168 19.84 86.3235 19.8533 86.4302 19.88C86.5368 19.9067 86.6435 19.9333 86.7502 19.96V21.24C86.4035 21.2 86.0635 21.18 85.7302 21.18C85.4102 21.18 85.0968 21.2 84.7902 21.24C84.4835 21.2667 84.1768 21.3067 83.8702 21.36C83.5635 21.4133 83.2568 21.4667 82.9502 21.52V30H81.5102ZM98.79 30.3C98.27 30.3 97.77 30.2667 97.29 30.2C96.8233 30.1467 96.4033 30.0467 96.03 29.9C95.67 29.74 95.3833 29.5333 95.17 29.28C94.9567 29.0267 94.85 28.7 94.85 28.3V15.8H96.29V21.16L95.79 20.66C96.0567 20.5267 96.3767 20.4 96.75 20.28C97.1367 20.16 97.53 20.06 97.93 19.98C98.33 19.9 98.6767 19.86 98.97 19.86C100.517 19.86 101.663 20.3133 102.41 21.22C103.157 22.1133 103.53 23.3333 103.53 24.88C103.53 26.0267 103.377 26.96 103.07 27.68C102.763 28.3867 102.37 28.9333 101.89 29.32C101.423 29.6933 100.917 29.9467 100.37 30.08C99.8233 30.2267 99.2967 30.3 98.79 30.3ZM98.65 28.98C99.5967 28.98 100.31 28.7867 100.79 28.4C101.27 28.0133 101.59 27.5133 101.75 26.9C101.923 26.2733 102.01 25.6 102.01 24.88C102.01 24.1467 101.903 23.5067 101.69 22.96C101.49 22.4 101.17 21.9667 100.73 21.66C100.29 21.34 99.7033 21.18 98.97 21.18C98.5567 21.18 98.11 21.24 97.63 21.36C97.15 21.4667 96.7033 21.64 96.29 21.88V27.96C96.29 28.2533 96.4167 28.4733 96.67 28.62C96.9367 28.7667 97.25 28.8667 97.61 28.92C97.9833 28.96 98.33 28.98 98.65 28.98ZM109.677 30.3C109.237 30.3 108.79 30.2533 108.337 30.16C107.897 30.0667 107.483 29.9067 107.097 29.68C106.723 29.4533 106.417 29.1467 106.177 28.76C105.95 28.36 105.837 27.86 105.837 27.26C105.837 26.4333 105.99 25.7733 106.297 25.28C106.617 24.7733 107.05 24.4133 107.597 24.2C108.157 23.9733 108.797 23.86 109.517 23.86C110.063 23.86 110.537 23.8933 110.937 23.96C111.337 24.0267 111.69 24.1267 111.997 24.26C112.317 24.38 112.603 24.52 112.857 24.68L113.137 26C112.83 25.7733 112.383 25.58 111.797 25.42C111.223 25.2467 110.59 25.16 109.897 25.16C109.057 25.16 108.41 25.32 107.957 25.64C107.503 25.96 107.277 26.4267 107.277 27.04C107.277 27.5333 107.41 27.9267 107.677 28.22C107.957 28.5133 108.303 28.72 108.717 28.84C109.143 28.96 109.577 29.02 110.017 29.02C110.883 29.02 111.537 28.96 111.977 28.84C112.43 28.7067 112.657 28.4133 112.657 27.96V23.38C112.657 22.6067 112.43 22.04 111.977 21.68C111.523 21.32 110.877 21.14 110.037 21.14C109.503 21.14 108.937 21.22 108.337 21.38C107.75 21.5267 107.243 21.7667 106.817 22.1V20.66C107.23 20.3933 107.783 20.1933 108.477 20.06C109.17 19.9133 109.843 19.84 110.497 19.84C110.937 19.84 111.343 19.8867 111.717 19.98C112.09 20.06 112.423 20.1867 112.717 20.36C113.01 20.52 113.257 20.7333 113.457 21C113.67 21.2533 113.83 21.5533 113.937 21.9C114.057 22.2333 114.117 22.6133 114.117 23.04V27.88C114.117 28.5867 113.903 29.1133 113.477 29.46C113.063 29.8067 112.517 30.0333 111.837 30.14C111.17 30.2467 110.45 30.3 109.677 30.3ZM120.131 30.3C119.411 30.3 118.804 30.2267 118.311 30.08C117.831 29.9333 117.331 29.7267 116.811 29.46V27.94C117.224 28.1667 117.591 28.36 117.911 28.52C118.231 28.68 118.558 28.8 118.891 28.88C119.224 28.9467 119.604 28.98 120.031 28.98C120.698 28.98 121.238 28.8333 121.651 28.54C122.078 28.2467 122.291 27.8667 122.291 27.4C122.291 27.0267 122.184 26.74 121.971 26.54C121.771 26.34 121.511 26.1733 121.191 26.04C120.871 25.9067 120.538 25.7667 120.191 25.62C119.804 25.5133 119.411 25.4 119.011 25.28C118.624 25.1467 118.264 24.98 117.931 24.78C117.611 24.5667 117.351 24.3 117.151 23.98C116.951 23.6467 116.851 23.22 116.851 22.7C116.851 22.1933 116.951 21.76 117.151 21.4C117.364 21.04 117.638 20.7467 117.971 20.52C118.304 20.28 118.678 20.1067 119.091 20C119.504 19.8933 119.918 19.84 120.331 19.84C120.931 19.84 121.444 19.92 121.871 20.08C122.298 20.24 122.738 20.42 123.191 20.62V22.06C122.684 21.7933 122.231 21.58 121.831 21.42C121.431 21.2467 120.958 21.16 120.411 21.16C119.864 21.16 119.371 21.2733 118.931 21.5C118.504 21.7133 118.291 22.0467 118.291 22.5C118.291 22.8733 118.398 23.1733 118.611 23.4C118.838 23.6133 119.131 23.7867 119.491 23.92C119.851 24.04 120.238 24.16 120.651 24.28C120.984 24.3867 121.331 24.5067 121.691 24.64C122.051 24.76 122.384 24.9267 122.691 25.14C122.998 25.34 123.244 25.6067 123.431 25.94C123.631 26.2733 123.731 26.7 123.731 27.22C123.731 27.9267 123.551 28.5133 123.191 28.98C122.831 29.4333 122.371 29.7667 121.811 29.98C121.264 30.1933 120.704 30.3 120.131 30.3ZM126.512 30V20.02H127.952V30H126.512ZM126.432 18.24V16.66H128.032V18.24H126.432ZM135.417 30.16C134.883 30.16 134.337 30.0933 133.777 29.96C133.23 29.8133 132.723 29.56 132.257 29.2C131.803 28.8267 131.437 28.3 131.157 27.62C130.877 26.94 130.737 26.0667 130.737 25C130.737 23.9333 130.877 23.0667 131.157 22.4C131.437 21.72 131.803 21.1933 132.257 20.82C132.723 20.4467 133.23 20.1933 133.777 20.06C134.337 19.9133 134.883 19.84 135.417 19.84C135.923 19.84 136.423 19.8867 136.917 19.98C137.423 20.0733 137.91 20.2133 138.377 20.4V21.78C137.937 21.5933 137.483 21.4533 137.017 21.36C136.55 21.2667 136.07 21.22 135.577 21.22C134.39 21.22 133.523 21.52 132.977 22.12C132.443 22.72 132.177 23.68 132.177 25C132.177 26.3333 132.443 27.3 132.977 27.9C133.523 28.4867 134.39 28.78 135.577 28.78C136.07 28.78 136.55 28.7333 137.017 28.64C137.483 28.5467 137.937 28.4067 138.377 28.22V29.62C137.91 29.7933 137.423 29.9267 136.917 30.02C136.423 30.1133 135.923 30.16 135.417 30.16ZM146.981 30V16.66H148.421V30H146.981ZM151.725 20.82C152.045 20.66 152.372 20.52 152.705 20.4C153.052 20.2667 153.398 20.16 153.745 20.08C154.105 20 154.465 19.94 154.825 19.9C155.198 19.86 155.572 19.84 155.945 19.84C156.918 19.84 157.692 19.9867 158.265 20.28C158.838 20.56 159.252 20.9733 159.505 21.52C159.772 22.0667 159.905 22.7267 159.905 23.5V30H158.465V23.5C158.465 23.26 158.432 23.0067 158.365 22.74C158.312 22.4733 158.198 22.22 158.025 21.98C157.852 21.7267 157.585 21.5267 157.225 21.38C156.865 21.22 156.385 21.14 155.785 21.14C155.372 21.14 154.945 21.1733 154.505 21.24C154.065 21.3067 153.618 21.4067 153.165 21.54V30H151.725V20.82ZM164.032 30V21.34H162.312V20.02H164.032V19.48C164.032 18.7467 164.112 18.1533 164.272 17.7C164.445 17.2333 164.665 16.8733 164.932 16.62C165.198 16.3533 165.478 16.1667 165.772 16.06C166.065 15.94 166.345 15.8733 166.612 15.86C166.878 15.8333 167.092 15.82 167.252 15.82C167.438 15.82 167.612 15.8333 167.772 15.86C167.932 15.8733 168.078 15.9 168.212 15.94V17.22C168.118 17.1933 168.012 17.1733 167.892 17.16C167.772 17.1467 167.638 17.14 167.492 17.14C167.265 17.14 167.032 17.1533 166.792 17.18C166.552 17.2067 166.332 17.2933 166.132 17.44C165.932 17.5733 165.772 17.8 165.652 18.12C165.532 18.4267 165.472 18.8733 165.472 19.46V20.02H168.212V21.34H165.472V30H164.032ZM174.009 30.3C172.449 30.3 171.289 29.84 170.529 28.92C169.782 27.9867 169.409 26.6933 169.409 25.04C169.409 23.3067 169.802 22.0067 170.589 21.14C171.389 20.2733 172.515 19.84 173.969 19.84C175.049 19.84 175.929 20.06 176.609 20.5C177.289 20.9267 177.789 21.5333 178.109 22.32C178.429 23.0933 178.589 24 178.589 25.04C178.589 26.68 178.189 27.9667 177.389 28.9C176.602 29.8333 175.475 30.3 174.009 30.3ZM173.989 28.98C174.802 28.98 175.435 28.8067 175.889 28.46C176.342 28.1 176.662 27.6267 176.849 27.04C177.049 26.44 177.149 25.7733 177.149 25.04C177.149 24.2533 177.049 23.5733 176.849 23C176.649 22.4133 176.315 21.96 175.849 21.64C175.395 21.32 174.775 21.16 173.989 21.16C173.189 21.16 172.562 21.3333 172.109 21.68C171.655 22.0267 171.329 22.4933 171.129 23.08C170.942 23.6533 170.849 24.3067 170.849 25.04C170.849 26.2133 171.082 27.1667 171.549 27.9C172.015 28.62 172.829 28.98 173.989 28.98ZM181.295 30V20.82C181.455 20.7533 181.762 20.64 182.215 20.48C182.682 20.32 183.235 20.1733 183.875 20.04C184.529 19.9067 185.202 19.84 185.895 19.84C186.002 19.84 186.109 19.8533 186.215 19.88C186.322 19.9067 186.429 19.9333 186.535 19.96V21.24C186.189 21.2 185.849 21.18 185.515 21.18C185.195 21.18 184.882 21.2 184.575 21.24C184.269 21.2667 183.962 21.3067 183.655 21.36C183.349 21.4133 183.042 21.4667 182.735 21.52V30H181.295ZM197.014 23.5V30H195.574V23.5C195.574 23.26 195.541 23.0067 195.474 22.74C195.421 22.4733 195.308 22.22 195.134 21.98C194.961 21.7267 194.694 21.5267 194.334 21.38C193.974 21.22 193.494 21.14 192.894 21.14C192.481 21.14 192.054 21.1733 191.614 21.24C191.174 21.3067 190.728 21.4067 190.274 21.54V30H188.834V20.82C189.154 20.66 189.481 20.52 189.814 20.4C190.161 20.2667 190.508 20.16 190.854 20.08C191.214 20 191.574 19.94 191.934 19.9C192.308 19.86 192.681 19.84 193.054 19.84C194.028 19.84 194.801 19.9867 195.374 20.28C195.948 20.56 196.361 20.9733 196.614 21.52C196.881 22.0667 197.014 22.7267 197.014 23.5ZM195.114 21.22C195.554 20.8867 196.001 20.62 196.454 20.42C196.908 20.22 197.374 20.0733 197.854 19.98C198.348 19.8867 198.841 19.84 199.334 19.84C200.308 19.84 201.081 19.9867 201.654 20.28C202.228 20.56 202.641 20.9733 202.894 21.52C203.161 22.0667 203.294 22.7267 203.294 23.5V30H201.854V23.5C201.854 23.26 201.821 23.0067 201.754 22.74C201.701 22.4733 201.588 22.22 201.414 21.98C201.241 21.7267 200.974 21.5267 200.614 21.38C200.254 21.22 199.774 21.14 199.174 21.14C198.761 21.14 198.334 21.2 197.894 21.32C197.454 21.44 197.008 21.6467 196.554 21.94L195.114 21.22ZM209.931 30.3C209.491 30.3 209.044 30.2533 208.591 30.16C208.151 30.0667 207.737 29.9067 207.351 29.68C206.977 29.4533 206.671 29.1467 206.431 28.76C206.204 28.36 206.091 27.86 206.091 27.26C206.091 26.4333 206.244 25.7733 206.551 25.28C206.871 24.7733 207.304 24.4133 207.851 24.2C208.411 23.9733 209.051 23.86 209.771 23.86C210.317 23.86 210.791 23.8933 211.191 23.96C211.591 24.0267 211.944 24.1267 212.251 24.26C212.571 24.38 212.857 24.52 213.111 24.68L213.391 26C213.084 25.7733 212.637 25.58 212.051 25.42C211.477 25.2467 210.844 25.16 210.151 25.16C209.311 25.16 208.664 25.32 208.211 25.64C207.757 25.96 207.531 26.4267 207.531 27.04C207.531 27.5333 207.664 27.9267 207.931 28.22C208.211 28.5133 208.557 28.72 208.971 28.84C209.397 28.96 209.831 29.02 210.271 29.02C211.137 29.02 211.791 28.96 212.231 28.84C212.684 28.7067 212.911 28.4133 212.911 27.96V23.38C212.911 22.6067 212.684 22.04 212.231 21.68C211.777 21.32 211.131 21.14 210.291 21.14C209.757 21.14 209.191 21.22 208.591 21.38C208.004 21.5267 207.497 21.7667 207.071 22.1V20.66C207.484 20.3933 208.037 20.1933 208.731 20.06C209.424 19.9133 210.097 19.84 210.751 19.84C211.191 19.84 211.597 19.8867 211.971 19.98C212.344 20.06 212.677 20.1867 212.971 20.36C213.264 20.52 213.511 20.7333 213.711 21C213.924 21.2533 214.084 21.5533 214.191 21.9C214.311 22.2333 214.371 22.6133 214.371 23.04V27.88C214.371 28.5867 214.157 29.1133 213.731 29.46C213.317 29.8067 212.771 30.0333 212.091 30.14C211.424 30.2467 210.704 30.3 209.931 30.3ZM220.705 30.16C219.998 30.16 219.405 29.9467 218.925 29.52C218.445 29.08 218.205 28.4333 218.205 27.58V21.34H216.465V20.02H218.205V17.2H219.645V20.02H222.225V21.34H219.645V27.12C219.645 27.68 219.732 28.1 219.905 28.38C220.078 28.66 220.432 28.8 220.965 28.8C221.205 28.8 221.438 28.78 221.665 28.74C221.892 28.6867 222.078 28.6267 222.225 28.56V29.92C222.038 29.9867 221.798 30.04 221.505 30.08C221.225 30.1333 220.958 30.16 220.705 30.16ZM224.91 30V20.02H226.35V30H224.91ZM224.83 18.24V16.66H226.43V18.24H224.83ZM233.735 30.3C232.175 30.3 231.015 29.84 230.255 28.92C229.508 27.9867 229.135 26.6933 229.135 25.04C229.135 23.3067 229.528 22.0067 230.315 21.14C231.115 20.2733 232.242 19.84 233.695 19.84C234.775 19.84 235.655 20.06 236.335 20.5C237.015 20.9267 237.515 21.5333 237.835 22.32C238.155 23.0933 238.315 24 238.315 25.04C238.315 26.68 237.915 27.9667 237.115 28.9C236.328 29.8333 235.202 30.3 233.735 30.3ZM233.715 28.98C234.528 28.98 235.162 28.8067 235.615 28.46C236.068 28.1 236.388 27.6267 236.575 27.04C236.775 26.44 236.875 25.7733 236.875 25.04C236.875 24.2533 236.775 23.5733 236.575 23C236.375 22.4133 236.042 21.96 235.575 21.64C235.122 21.32 234.502 21.16 233.715 21.16C232.915 21.16 232.288 21.3333 231.835 21.68C231.382 22.0267 231.055 22.4933 230.855 23.08C230.668 23.6533 230.575 24.3067 230.575 25.04C230.575 26.2133 230.808 27.1667 231.275 27.9C231.742 28.62 232.555 28.98 233.715 28.98ZM241.022 20.82C241.342 20.66 241.669 20.52 242.002 20.4C242.349 20.2667 242.695 20.16 243.042 20.08C243.402 20 243.762 19.94 244.122 19.9C244.495 19.86 244.869 19.84 245.242 19.84C246.215 19.84 246.989 19.9867 247.562 20.28C248.135 20.56 248.549 20.9733 248.802 21.52C249.069 22.0667 249.202 22.7267 249.202 23.5V30H247.762V23.5C247.762 23.26 247.729 23.0067 247.662 22.74C247.609 22.4733 247.495 22.22 247.322 21.98C247.149 21.7267 246.882 21.5267 246.522 21.38C246.162 21.22 245.682 21.14 245.082 21.14C244.669 21.14 244.242 21.1733 243.802 21.24C243.362 21.3067 242.915 21.4067 242.462 21.54V30H241.022V20.82Z" fill="black"/>
</svg>
