<svg width="179" height="44" viewBox="0 0 179 44" fill="none" xmlns="http://www.w3.org/2000/svg">
<path d="M21.9998 42.8332C33.5058 42.8332 42.8332 33.5058 42.8332 21.9998C42.8332 10.4939 33.5058 1.1665 21.9998 1.1665C10.4939 1.1665 1.1665 10.4939 1.1665 21.9998C1.1665 33.5058 10.4939 42.8332 21.9998 42.8332Z" stroke="#0093B4" stroke-opacity="0.83" stroke-width="2"/>
<path d="M18.54 30V28.74C18.9933 28.4067 19.5133 27.9933 20.1 27.5C20.7 27.0067 21.3 26.4667 21.9 25.88C22.5133 25.28 23.0733 24.66 23.58 24.02C24.1 23.3667 24.52 22.72 24.84 22.08C25.16 21.44 25.32 20.8267 25.32 20.24C25.32 19.88 25.24 19.5267 25.08 19.18C24.92 18.82 24.6133 18.52 24.16 18.28C23.7067 18.04 23.0467 17.92 22.18 17.92C21.38 17.92 20.68 18.0533 20.08 18.32C19.4933 18.5867 19.0267 18.84 18.68 19.08V17.5C19.1067 17.2333 19.62 17 20.22 16.8C20.8333 16.5867 21.5267 16.48 22.3 16.48C23.3933 16.48 24.2667 16.6667 24.92 17.04C25.5733 17.4133 26.04 17.8867 26.32 18.46C26.6133 19.0333 26.76 19.6267 26.76 20.24C26.76 20.84 26.6067 21.4667 26.3 22.12C26.0067 22.7733 25.6133 23.4267 25.12 24.08C24.64 24.7333 24.1067 25.3667 23.52 25.98C22.9333 26.5933 22.3467 27.1667 21.76 27.7C21.1733 28.22 20.64 28.6733 20.16 29.06L19.74 28.56H26.96V30H18.54Z" fill="#0093B4" fill-opacity="0.83"/>
<path d="M48.7 34V20.66H53.12C54.28 20.66 55.18 20.8267 55.82 21.16C56.46 21.48 56.9067 21.9133 57.16 22.46C57.4267 22.9933 57.56 23.5867 57.56 24.24C57.56 24.8133 57.4733 25.26 57.3 25.58C57.1267 25.9 56.9133 26.1667 56.66 26.38C56.42 26.58 56.1867 26.7867 55.96 27L55.8 26.74C56.1467 26.86 56.52 27.06 56.92 27.34C57.32 27.6067 57.66 27.9733 57.94 28.44C58.22 28.9067 58.36 29.5 58.36 30.22C58.36 31.1133 58.1667 31.84 57.78 32.4C57.3933 32.9467 56.8333 33.3533 56.1 33.62C55.38 33.8733 54.52 34 53.52 34H48.7ZM50.14 32.66H53.64C54.2133 32.66 54.7467 32.6 55.24 32.48C55.7467 32.36 56.1533 32.12 56.46 31.76C56.7667 31.3867 56.92 30.8467 56.92 30.14C56.92 29.6067 56.82 29.1867 56.62 28.88C56.42 28.56 56.1533 28.3267 55.82 28.18C55.5 28.02 55.14 27.92 54.74 27.88C54.3533 27.8267 53.9667 27.8 53.58 27.8H50.14V32.66ZM50.14 26.44H53.44C53.88 26.44 54.3 26.4 54.7 26.32C55.1133 26.2267 55.4533 26.0333 55.72 25.74C55.9867 25.4333 56.12 24.9667 56.12 24.34C56.12 23.4333 55.8667 22.8267 55.36 22.52C54.8533 22.2 54.1533 22.04 53.26 22.04H50.14V26.44ZM61.2386 34V24.02H62.6786V34H61.2386ZM61.1586 22.24V20.66H62.7586V22.24H61.1586ZM67.4033 34H65.9633V20.22H67.4033V34ZM72.0517 34H70.6117V20.22H72.0517V34ZM75.3402 34V24.02H76.7802V34H75.3402ZM75.2602 22.24V20.66H76.8602V22.24H75.2602ZM80.0648 24.82C80.3848 24.66 80.7115 24.52 81.0448 24.4C81.3915 24.2667 81.7382 24.16 82.0848 24.08C82.4448 24 82.8048 23.94 83.1648 23.9C83.5382 23.86 83.9115 23.84 84.2848 23.84C85.2582 23.84 86.0315 23.9867 86.6048 24.28C87.1782 24.56 87.5915 24.9733 87.8448 25.52C88.1115 26.0667 88.2448 26.7267 88.2448 27.5V34H86.8048V27.5C86.8048 27.26 86.7715 27.0067 86.7048 26.74C86.6515 26.4733 86.5382 26.22 86.3648 25.98C86.1915 25.7267 85.9248 25.5267 85.5648 25.38C85.2048 25.22 84.7248 25.14 84.1248 25.14C83.7115 25.14 83.2848 25.1733 82.8448 25.24C82.4048 25.3067 81.9582 25.4067 81.5048 25.54V34H80.0648V24.82ZM95.5116 34.3C94.4849 34.3 93.6316 34.1 92.9516 33.7C92.2849 33.2867 91.7849 32.7067 91.4516 31.96C91.1182 31.2 90.9516 30.3067 90.9516 29.28C90.9516 28.1333 91.1049 27.2067 91.4116 26.5C91.7182 25.78 92.1116 25.2333 92.5916 24.86C93.0849 24.4733 93.6182 24.2133 94.1916 24.08C94.7782 23.9333 95.3449 23.86 95.8916 23.86C96.5182 23.86 97.1116 23.9467 97.6716 24.12C98.2449 24.28 98.7116 24.54 99.0716 24.9C99.4449 25.26 99.6316 25.74 99.6316 26.34V34.42C99.6316 34.82 99.5716 35.2267 99.4516 35.64C99.3316 36.0533 99.1116 36.4333 98.7916 36.78C98.4849 37.14 98.0449 37.4267 97.4716 37.64C96.9116 37.8533 96.1849 37.96 95.2916 37.96C94.7182 37.96 94.1916 37.9067 93.7116 37.8C93.2316 37.6933 92.8116 37.5933 92.4516 37.5V36.14C92.6649 36.1933 92.9049 36.2533 93.1716 36.32C93.4516 36.4 93.7516 36.4667 94.0716 36.52C94.4049 36.5733 94.7582 36.6 95.1316 36.6C96.0382 36.6 96.7049 36.4867 97.1316 36.26C97.5716 36.0467 97.8582 35.7733 97.9916 35.44C98.1249 35.12 98.1916 34.7933 98.1916 34.46V33L98.6916 33.5C98.4382 33.6333 98.1182 33.76 97.7316 33.88C97.3449 34 96.9516 34.1 96.5516 34.18C96.1516 34.26 95.8049 34.3 95.5116 34.3ZM95.5116 32.98C95.9382 32.98 96.3849 32.9267 96.8516 32.82C97.3316 32.7 97.7782 32.52 98.1916 32.28V26.54C98.1916 26.1667 98.0849 25.8867 97.8716 25.7C97.6716 25.5 97.3982 25.3667 97.0516 25.3C96.7049 25.22 96.3316 25.18 95.9316 25.18C94.9582 25.18 94.2249 25.3733 93.7316 25.76C93.2382 26.1333 92.9049 26.6333 92.7316 27.26C92.5582 27.8867 92.4716 28.56 92.4716 29.28C92.4716 30.3733 92.7049 31.2667 93.1716 31.96C93.6382 32.64 94.4182 32.98 95.5116 32.98ZM107.439 34L112.759 20.66H114.199L119.499 34H117.959L113.339 22L113.639 21.96L108.999 34H107.439ZM109.779 29.84L110.399 28.46H116.939L117.039 29.84H109.779ZM125.631 34.3C125.151 34.3 124.644 34.2267 124.111 34.08C123.577 33.9467 123.071 33.6933 122.591 33.32C122.124 32.9333 121.737 32.3867 121.431 31.68C121.137 30.96 120.991 30.0267 120.991 28.88C120.991 27.3333 121.364 26.1133 122.111 25.22C122.871 24.3133 124.017 23.86 125.551 23.86C125.844 23.86 126.191 23.9 126.591 23.98C126.991 24.06 127.384 24.16 127.771 24.28C128.157 24.4 128.477 24.5267 128.731 24.66L128.231 25.16V19.8H129.671V32.28C129.671 32.6533 129.537 32.9733 129.271 33.24C129.017 33.4933 128.684 33.7 128.271 33.86C127.857 34.0067 127.417 34.1133 126.951 34.18C126.484 34.26 126.044 34.3 125.631 34.3ZM125.651 32.98C126.344 32.98 126.944 32.9 127.451 32.74C127.971 32.58 128.231 32.38 128.231 32.14V25.88C127.817 25.64 127.371 25.4667 126.891 25.36C126.424 25.24 125.977 25.18 125.551 25.18C124.831 25.18 124.244 25.34 123.791 25.66C123.351 25.9667 123.024 26.4 122.811 26.96C122.611 27.5067 122.511 28.1467 122.511 28.88C122.511 29.6 122.591 30.2733 122.751 30.9C122.911 31.5133 123.217 32.0133 123.671 32.4C124.124 32.7867 124.784 32.98 125.651 32.98ZM137.017 34.3C136.537 34.3 136.031 34.2267 135.497 34.08C134.964 33.9467 134.457 33.6933 133.977 33.32C133.511 32.9333 133.124 32.3867 132.817 31.68C132.524 30.96 132.377 30.0267 132.377 28.88C132.377 27.3333 132.751 26.1133 133.497 25.22C134.257 24.3133 135.404 23.86 136.937 23.86C137.231 23.86 137.577 23.9 137.977 23.98C138.377 24.06 138.771 24.16 139.157 24.28C139.544 24.4 139.864 24.5267 140.117 24.66L139.617 25.16V19.8H141.057V32.28C141.057 32.6533 140.924 32.9733 140.657 33.24C140.404 33.4933 140.071 33.7 139.657 33.86C139.244 34.0067 138.804 34.1133 138.337 34.18C137.871 34.26 137.431 34.3 137.017 34.3ZM137.037 32.98C137.731 32.98 138.331 32.9 138.837 32.74C139.357 32.58 139.617 32.38 139.617 32.14V25.88C139.204 25.64 138.757 25.4667 138.277 25.36C137.811 25.24 137.364 25.18 136.937 25.18C136.217 25.18 135.631 25.34 135.177 25.66C134.737 25.9667 134.411 26.4 134.197 26.96C133.997 27.5067 133.897 28.1467 133.897 28.88C133.897 29.6 133.977 30.2733 134.137 30.9C134.297 31.5133 134.604 32.0133 135.057 32.4C135.511 32.7867 136.171 32.98 137.037 32.98ZM144.264 34V24.82C144.424 24.7533 144.731 24.64 145.184 24.48C145.651 24.32 146.204 24.1733 146.844 24.04C147.497 23.9067 148.171 23.84 148.864 23.84C148.971 23.84 149.077 23.8533 149.184 23.88C149.291 23.9067 149.397 23.9333 149.504 23.96V25.24C149.157 25.2 148.817 25.18 148.484 25.18C148.164 25.18 147.851 25.2 147.544 25.24C147.237 25.2667 146.931 25.3067 146.624 25.36C146.317 25.4133 146.011 25.4667 145.704 25.52V34H144.264ZM155.22 34.3C154.273 34.3 153.453 34.1067 152.76 33.72C152.067 33.32 151.533 32.7267 151.16 31.94C150.787 31.1533 150.6 30.1733 150.6 29C150.6 27.28 150.987 25.9933 151.76 25.14C152.547 24.2733 153.62 23.84 154.98 23.84C156.047 23.84 156.9 24.08 157.54 24.56C158.193 25.04 158.66 25.6867 158.94 26.5C159.22 27.3133 159.353 28.2333 159.34 29.26H151.32L151.42 27.94H158.4L157.84 28.14C157.8 27.14 157.547 26.3933 157.08 25.9C156.627 25.4067 155.927 25.16 154.98 25.16C154.327 25.16 153.78 25.28 153.34 25.52C152.913 25.76 152.593 26.18 152.38 26.78C152.167 27.3667 152.06 28.1933 152.06 29.26C152.06 30.4733 152.34 31.4 152.9 32.04C153.473 32.6667 154.273 32.98 155.3 32.98C155.793 32.98 156.247 32.9467 156.66 32.88C157.073 32.8 157.453 32.6933 157.8 32.56C158.147 32.4267 158.453 32.28 158.72 32.12V33.6C158.24 33.8267 157.707 34 157.12 34.12C156.547 34.24 155.913 34.3 155.22 34.3ZM164.858 34.3C164.138 34.3 163.531 34.2267 163.038 34.08C162.558 33.9333 162.058 33.7267 161.538 33.46V31.94C161.951 32.1667 162.318 32.36 162.638 32.52C162.958 32.68 163.284 32.8 163.618 32.88C163.951 32.9467 164.331 32.98 164.758 32.98C165.424 32.98 165.964 32.8333 166.378 32.54C166.804 32.2467 167.018 31.8667 167.018 31.4C167.018 31.0267 166.911 30.74 166.698 30.54C166.498 30.34 166.238 30.1733 165.918 30.04C165.598 29.9067 165.264 29.7667 164.918 29.62C164.531 29.5133 164.138 29.4 163.738 29.28C163.351 29.1467 162.991 28.98 162.658 28.78C162.338 28.5667 162.078 28.3 161.878 27.98C161.678 27.6467 161.578 27.22 161.578 26.7C161.578 26.1933 161.678 25.76 161.878 25.4C162.091 25.04 162.364 24.7467 162.698 24.52C163.031 24.28 163.404 24.1067 163.818 24C164.231 23.8933 164.644 23.84 165.058 23.84C165.658 23.84 166.171 23.92 166.598 24.08C167.024 24.24 167.464 24.42 167.918 24.62V26.06C167.411 25.7933 166.958 25.58 166.558 25.42C166.158 25.2467 165.684 25.16 165.138 25.16C164.591 25.16 164.098 25.2733 163.658 25.5C163.231 25.7133 163.018 26.0467 163.018 26.5C163.018 26.8733 163.124 27.1733 163.338 27.4C163.564 27.6133 163.858 27.7867 164.218 27.92C164.578 28.04 164.964 28.16 165.378 28.28C165.711 28.3867 166.058 28.5067 166.418 28.64C166.778 28.76 167.111 28.9267 167.418 29.14C167.724 29.34 167.971 29.6067 168.158 29.94C168.358 30.2733 168.458 30.7 168.458 31.22C168.458 31.9267 168.278 32.5133 167.918 32.98C167.558 33.4333 167.098 33.7667 166.538 33.98C165.991 34.1933 165.431 34.3 164.858 34.3ZM173.979 34.3C173.259 34.3 172.652 34.2267 172.159 34.08C171.679 33.9333 171.179 33.7267 170.659 33.46V31.94C171.072 32.1667 171.439 32.36 171.759 32.52C172.079 32.68 172.405 32.8 172.739 32.88C173.072 32.9467 173.452 32.98 173.879 32.98C174.545 32.98 175.085 32.8333 175.499 32.54C175.925 32.2467 176.139 31.8667 176.139 31.4C176.139 31.0267 176.032 30.74 175.819 30.54C175.619 30.34 175.359 30.1733 175.039 30.04C174.719 29.9067 174.385 29.7667 174.039 29.62C173.652 29.5133 173.259 29.4 172.859 29.28C172.472 29.1467 172.112 28.98 171.779 28.78C171.459 28.5667 171.199 28.3 170.999 27.98C170.799 27.6467 170.699 27.22 170.699 26.7C170.699 26.1933 170.799 25.76 170.999 25.4C171.212 25.04 171.485 24.7467 171.819 24.52C172.152 24.28 172.525 24.1067 172.939 24C173.352 23.8933 173.765 23.84 174.179 23.84C174.779 23.84 175.292 23.92 175.719 24.08C176.145 24.24 176.585 24.42 177.039 24.62V26.06C176.532 25.7933 176.079 25.58 175.679 25.42C175.279 25.2467 174.805 25.16 174.259 25.16C173.712 25.16 173.219 25.2733 172.779 25.5C172.352 25.7133 172.139 26.0467 172.139 26.5C172.139 26.8733 172.245 27.1733 172.459 27.4C172.685 27.6133 172.979 27.7867 173.339 27.92C173.699 28.04 174.085 28.16 174.499 28.28C174.832 28.3867 175.179 28.5067 175.539 28.64C175.899 28.76 176.232 28.9267 176.539 29.14C176.845 29.34 177.092 29.6067 177.279 29.94C177.479 30.2733 177.579 30.7 177.579 31.22C177.579 31.9267 177.399 32.5133 177.039 32.98C176.679 33.4333 176.219 33.7667 175.659 33.98C175.112 34.1933 174.552 34.3 173.979 34.3Z" fill="black"/>
</svg>
