<svg width="203" height="44" viewBox="0 0 203 44" fill="none" xmlns="http://www.w3.org/2000/svg">
<path d="M21.9998 42.6667C33.5058 42.6667 42.8332 33.3393 42.8332 21.8333C42.8332 10.3274 33.5058 1 21.9998 1C10.4939 1 1.1665 10.3274 1.1665 21.8333C1.1665 33.3393 10.4939 42.6667 21.9998 42.6667Z" stroke="#0093B4" stroke-opacity="0.83" stroke-width="2"/>
<path d="M22.18 29.9933C21.4467 29.9933 20.78 29.9133 20.18 29.7533C19.5933 29.5799 19.0733 29.3799 18.62 29.1533V27.6733C19.0333 27.8999 19.52 28.1066 20.08 28.2933C20.6533 28.4666 21.2933 28.5533 22 28.5533C23.1867 28.5533 24.0933 28.3333 24.72 27.8933C25.3467 27.4533 25.66 26.8199 25.66 25.9933C25.66 25.1666 25.34 24.5333 24.7 24.0933C24.06 23.6533 23.1333 23.4333 21.92 23.4333H20.46V22.0533H21.98C22.9533 22.0533 23.6933 21.8733 24.2 21.5133C24.72 21.1399 24.98 20.6066 24.98 19.9133C24.98 19.4466 24.86 19.0533 24.62 18.7333C24.38 18.4133 24.02 18.1733 23.54 18.0133C23.0733 17.8399 22.5 17.7533 21.82 17.7533C21.22 17.7533 20.68 17.8266 20.2 17.9733C19.72 18.1066 19.3 18.2666 18.94 18.4533V16.9933C19.34 16.8066 19.7933 16.6466 20.3 16.5133C20.8067 16.3799 21.3667 16.3133 21.98 16.3133C22.8067 16.3133 23.5 16.4199 24.06 16.6333C24.6333 16.8333 25.0933 17.1066 25.44 17.4533C25.7867 17.7999 26.0333 18.1866 26.18 18.6133C26.34 19.0399 26.42 19.4733 26.42 19.9133C26.42 20.4066 26.3333 20.8266 26.16 21.1733C25.9867 21.5199 25.7867 21.7999 25.56 22.0133C25.3333 22.2266 25.1333 22.3799 24.96 22.4733C24.7867 22.5666 24.7 22.6133 24.7 22.6133C24.7 22.6133 24.82 22.6799 25.06 22.8133C25.3 22.9333 25.58 23.1333 25.9 23.4133C26.22 23.6799 26.5 24.0333 26.74 24.4733C26.98 24.8999 27.1 25.4199 27.1 26.0333C27.1 26.5133 27.0133 26.9866 26.84 27.4533C26.6667 27.9199 26.3867 28.3466 26 28.7333C25.6133 29.1199 25.1067 29.4266 24.48 29.6533C23.8533 29.8799 23.0867 29.9933 22.18 29.9933Z" fill="#0093B4" fill-opacity="0.83"/>
<path d="M51.14 32.7333V37.8333H49.7V24.4933H54.44C55.9333 24.4933 57.0733 24.8466 57.86 25.5533C58.66 26.2599 59.06 27.2799 59.06 28.6133C59.06 29.9466 58.66 30.9666 57.86 31.6733C57.0733 32.3799 55.9333 32.7333 54.44 32.7333H51.14ZM51.14 31.3533H54.26C55.0067 31.3533 55.6 31.2733 56.04 31.1133C56.4933 30.9533 56.8333 30.7399 57.06 30.4733C57.2867 30.1933 57.4333 29.8933 57.5 29.5733C57.58 29.2533 57.62 28.9333 57.62 28.6133C57.62 28.2933 57.58 27.9733 57.5 27.6533C57.4333 27.3333 57.2867 27.0399 57.06 26.7733C56.8333 26.4933 56.4933 26.2733 56.04 26.1133C55.6 25.9533 55.0067 25.8733 54.26 25.8733H51.14V31.3533ZM65.3056 38.1333C64.8656 38.1333 64.419 38.0866 63.9656 37.9933C63.5256 37.8999 63.1123 37.7399 62.7256 37.5133C62.3523 37.2866 62.0456 36.9799 61.8056 36.5933C61.579 36.1933 61.4656 35.6933 61.4656 35.0933C61.4656 34.2666 61.619 33.6066 61.9256 33.1133C62.2456 32.6066 62.679 32.2466 63.2256 32.0333C63.7856 31.8066 64.4256 31.6933 65.1456 31.6933C65.6923 31.6933 66.1656 31.7266 66.5656 31.7933C66.9656 31.8599 67.319 31.9599 67.6256 32.0933C67.9456 32.2133 68.2323 32.3533 68.4856 32.5133L68.7656 33.8333C68.459 33.6066 68.0123 33.4133 67.4256 33.2533C66.8523 33.0799 66.219 32.9933 65.5256 32.9933C64.6856 32.9933 64.039 33.1533 63.5856 33.4733C63.1323 33.7933 62.9056 34.2599 62.9056 34.8733C62.9056 35.3666 63.039 35.7599 63.3056 36.0533C63.5856 36.3466 63.9323 36.5533 64.3456 36.6733C64.7723 36.7933 65.2056 36.8533 65.6456 36.8533C66.5123 36.8533 67.1656 36.7933 67.6056 36.6733C68.059 36.5399 68.2856 36.2466 68.2856 35.7933V31.2133C68.2856 30.4399 68.059 29.8733 67.6056 29.5133C67.1523 29.1533 66.5056 28.9733 65.6656 28.9733C65.1323 28.9733 64.5656 29.0533 63.9656 29.2133C63.379 29.3599 62.8723 29.5999 62.4456 29.9333V28.4933C62.859 28.2266 63.4123 28.0266 64.1056 27.8933C64.799 27.7466 65.4723 27.6733 66.1256 27.6733C66.5656 27.6733 66.9723 27.7199 67.3456 27.8133C67.719 27.8933 68.0523 28.0199 68.3456 28.1933C68.639 28.3533 68.8856 28.5666 69.0856 28.8333C69.299 29.0866 69.459 29.3866 69.5656 29.7333C69.6856 30.0666 69.7456 30.4466 69.7456 30.8733V35.7133C69.7456 36.4199 69.5323 36.9466 69.1056 37.2933C68.6923 37.6399 68.1456 37.8666 67.4656 37.9733C66.799 38.0799 66.079 38.1333 65.3056 38.1333ZM73.6292 41.6933C73.4292 41.6933 73.2492 41.6733 73.0892 41.6333C72.9292 41.5933 72.7959 41.5533 72.6892 41.5133V40.1933C72.7826 40.2333 72.9026 40.2733 73.0492 40.3133C73.1959 40.3533 73.3626 40.3733 73.5492 40.3733C74.0026 40.3733 74.3692 40.2466 74.6492 39.9933C74.9292 39.7399 75.1626 39.3999 75.3492 38.9733C75.5492 38.5466 75.7292 38.0733 75.8892 37.5533V38.1333L71.6492 27.8533H73.2892L76.6092 36.3733H76.3092L79.6092 27.8533H81.0492L76.7692 38.8133C76.4626 39.5999 76.1226 40.1999 75.7492 40.6133C75.3892 41.0266 75.0226 41.3066 74.6492 41.4533C74.2892 41.6133 73.9492 41.6933 73.6292 41.6933ZM91.53 31.3333V37.8333H90.09V31.3333C90.09 31.0933 90.0567 30.8399 89.99 30.5733C89.9367 30.3066 89.8233 30.0533 89.65 29.8133C89.4767 29.5599 89.21 29.3599 88.85 29.2133C88.49 29.0533 88.01 28.9733 87.41 28.9733C86.9967 28.9733 86.57 29.0066 86.13 29.0733C85.69 29.1399 85.2433 29.2399 84.79 29.3733V37.8333H83.35V28.6533C83.67 28.4933 83.9967 28.3533 84.33 28.2333C84.6767 28.0999 85.0233 27.9933 85.37 27.9133C85.73 27.8333 86.09 27.7733 86.45 27.7333C86.8233 27.6933 87.1967 27.6733 87.57 27.6733C88.5433 27.6733 89.3167 27.8199 89.89 28.1133C90.4633 28.3933 90.8767 28.8066 91.13 29.3533C91.3967 29.8999 91.53 30.5599 91.53 31.3333ZM89.63 29.0533C90.07 28.7199 90.5167 28.4533 90.97 28.2533C91.4233 28.0533 91.89 27.9066 92.37 27.8133C92.8633 27.7199 93.3567 27.6733 93.85 27.6733C94.8233 27.6733 95.5967 27.8199 96.17 28.1133C96.7433 28.3933 97.1567 28.8066 97.41 29.3533C97.6767 29.8999 97.81 30.5599 97.81 31.3333V37.8333H96.37V31.3333C96.37 31.0933 96.3367 30.8399 96.27 30.5733C96.2167 30.3066 96.1033 30.0533 95.93 29.8133C95.7567 29.5599 95.49 29.3599 95.13 29.2133C94.77 29.0533 94.29 28.9733 93.69 28.9733C93.2767 28.9733 92.85 29.0333 92.41 29.1533C91.97 29.2733 91.5233 29.4799 91.07 29.7733L89.63 29.0533ZM105.126 38.1333C104.18 38.1333 103.36 37.9399 102.666 37.5533C101.973 37.1533 101.44 36.5599 101.066 35.7733C100.693 34.9866 100.506 34.0066 100.506 32.8333C100.506 31.1133 100.893 29.8266 101.666 28.9733C102.453 28.1066 103.526 27.6733 104.886 27.6733C105.953 27.6733 106.806 27.9133 107.446 28.3933C108.1 28.8733 108.566 29.5199 108.846 30.3333C109.126 31.1466 109.26 32.0666 109.246 33.0933H101.226L101.326 31.7733H108.306L107.746 31.9733C107.706 30.9733 107.453 30.2266 106.986 29.7333C106.533 29.2399 105.833 28.9933 104.886 28.9933C104.233 28.9933 103.686 29.1133 103.246 29.3533C102.82 29.5933 102.5 30.0133 102.286 30.6133C102.073 31.1999 101.966 32.0266 101.966 33.0933C101.966 34.3066 102.246 35.2333 102.806 35.8733C103.38 36.4999 104.18 36.8133 105.206 36.8133C105.7 36.8133 106.153 36.7799 106.566 36.7133C106.98 36.6333 107.36 36.5266 107.706 36.3933C108.053 36.2599 108.36 36.1133 108.626 35.9533V37.4333C108.146 37.6599 107.613 37.8333 107.026 37.9533C106.453 38.0733 105.82 38.1333 105.126 38.1333ZM111.944 28.6533C112.264 28.4933 112.59 28.3533 112.924 28.2333C113.27 28.0999 113.617 27.9933 113.964 27.9133C114.324 27.8333 114.684 27.7733 115.044 27.7333C115.417 27.6933 115.79 27.6733 116.164 27.6733C117.137 27.6733 117.91 27.8199 118.484 28.1133C119.057 28.3933 119.47 28.8066 119.724 29.3533C119.99 29.8999 120.124 30.5599 120.124 31.3333V37.8333H118.684V31.3333C118.684 31.0933 118.65 30.8399 118.584 30.5733C118.53 30.3066 118.417 30.0533 118.244 29.8133C118.07 29.5599 117.804 29.3599 117.444 29.2133C117.084 29.0533 116.604 28.9733 116.004 28.9733C115.59 28.9733 115.164 29.0066 114.724 29.0733C114.284 29.1399 113.837 29.2399 113.384 29.3733V37.8333H111.944V28.6533ZM126.47 37.9933C125.764 37.9933 125.17 37.7799 124.69 37.3533C124.21 36.9133 123.97 36.2666 123.97 35.4133V29.1733H122.23V27.8533H123.97V25.0333H125.41V27.8533H127.99V29.1733H125.41V34.9533C125.41 35.5133 125.497 35.9333 125.67 36.2133C125.844 36.4933 126.197 36.6333 126.73 36.6333C126.97 36.6333 127.204 36.6133 127.43 36.5733C127.657 36.5199 127.844 36.4599 127.99 36.3933V37.7533C127.804 37.8199 127.564 37.8733 127.27 37.9133C126.99 37.9666 126.724 37.9933 126.47 37.9933ZM136.497 37.8333V24.4933H138.057L142.997 32.0733L142.017 32.2933L147.237 24.4933H148.797V37.8333H147.357V25.9333H147.997L142.497 33.6533L137.417 26.0933L137.937 25.3533V37.8333H136.497ZM156.22 38.1333C155.273 38.1333 154.453 37.9399 153.76 37.5533C153.067 37.1533 152.533 36.5599 152.16 35.7733C151.787 34.9866 151.6 34.0066 151.6 32.8333C151.6 31.1133 151.987 29.8266 152.76 28.9733C153.547 28.1066 154.62 27.6733 155.98 27.6733C157.047 27.6733 157.9 27.9133 158.54 28.3933C159.193 28.8733 159.66 29.5199 159.94 30.3333C160.22 31.1466 160.353 32.0666 160.34 33.0933H152.32L152.42 31.7733H159.4L158.84 31.9733C158.8 30.9733 158.547 30.2266 158.08 29.7333C157.627 29.2399 156.927 28.9933 155.98 28.9933C155.327 28.9933 154.78 29.1133 154.34 29.3533C153.913 29.5933 153.593 30.0133 153.38 30.6133C153.167 31.1999 153.06 32.0266 153.06 33.0933C153.06 34.3066 153.34 35.2333 153.9 35.8733C154.473 36.4999 155.273 36.8133 156.3 36.8133C156.793 36.8133 157.247 36.7799 157.66 36.7133C158.073 36.6333 158.453 36.5266 158.8 36.3933C159.147 36.2599 159.453 36.1133 159.72 35.9533V37.4333C159.24 37.6599 158.707 37.8333 158.12 37.9533C157.547 38.0733 156.913 38.1333 156.22 38.1333ZM166.178 37.9933C165.471 37.9933 164.878 37.7799 164.398 37.3533C163.918 36.9133 163.678 36.2666 163.678 35.4133V29.1733H161.938V27.8533H163.678V25.0333H165.118V27.8533H167.698V29.1733H165.118V34.9533C165.118 35.5133 165.204 35.9333 165.378 36.2133C165.551 36.4933 165.904 36.6333 166.438 36.6333C166.678 36.6333 166.911 36.6133 167.138 36.5733C167.364 36.5199 167.551 36.4599 167.698 36.3933V37.7533C167.511 37.8199 167.271 37.8733 166.978 37.9133C166.698 37.9666 166.431 37.9933 166.178 37.9933ZM170.303 37.8333V23.4333H171.743V28.9733L171.583 28.5933C172.09 28.3133 172.623 28.0933 173.183 27.9333C173.743 27.7599 174.27 27.6733 174.763 27.6733C175.59 27.6733 176.283 27.8266 176.843 28.1333C177.416 28.4399 177.85 28.9066 178.143 29.5333C178.45 30.1466 178.603 30.9399 178.603 31.9133V37.8333H177.163V31.9133C177.163 30.9799 176.95 30.2599 176.523 29.7533C176.096 29.2466 175.456 28.9933 174.603 28.9933C174.136 28.9933 173.663 29.0599 173.183 29.1933C172.716 29.3266 172.236 29.5266 171.743 29.7933V37.8333H170.303ZM185.907 38.1333C184.347 38.1333 183.187 37.6733 182.427 36.7533C181.68 35.8199 181.307 34.5266 181.307 32.8733C181.307 31.1399 181.7 29.8399 182.487 28.9733C183.287 28.1066 184.414 27.6733 185.867 27.6733C186.947 27.6733 187.827 27.8933 188.507 28.3333C189.187 28.7599 189.687 29.3666 190.007 30.1533C190.327 30.9266 190.487 31.8333 190.487 32.8733C190.487 34.5133 190.087 35.7999 189.287 36.7333C188.5 37.6666 187.374 38.1333 185.907 38.1333ZM185.887 36.8133C186.7 36.8133 187.334 36.6399 187.787 36.2933C188.24 35.9333 188.56 35.4599 188.747 34.8733C188.947 34.2733 189.047 33.6066 189.047 32.8733C189.047 32.0866 188.947 31.4066 188.747 30.8333C188.547 30.2466 188.214 29.7933 187.747 29.4733C187.294 29.1533 186.674 28.9933 185.887 28.9933C185.087 28.9933 184.46 29.1666 184.007 29.5133C183.554 29.8599 183.227 30.3266 183.027 30.9133C182.84 31.4866 182.747 32.1399 182.747 32.8733C182.747 34.0466 182.98 34.9999 183.447 35.7333C183.914 36.4533 184.727 36.8133 185.887 36.8133ZM197.334 38.1333C196.854 38.1333 196.347 38.0599 195.814 37.9133C195.28 37.7799 194.774 37.5266 194.294 37.1533C193.827 36.7666 193.44 36.2199 193.134 35.5133C192.84 34.7933 192.694 33.8599 192.694 32.7133C192.694 31.1666 193.067 29.9466 193.814 29.0533C194.574 28.1466 195.72 27.6933 197.254 27.6933C197.547 27.6933 197.894 27.7333 198.294 27.8133C198.694 27.8933 199.087 27.9933 199.474 28.1133C199.86 28.2333 200.18 28.3599 200.434 28.4933L199.934 28.9933V23.6333H201.374V36.1133C201.374 36.4866 201.24 36.8066 200.974 37.0733C200.72 37.3266 200.387 37.5333 199.974 37.6933C199.56 37.8399 199.12 37.9466 198.654 38.0133C198.187 38.0933 197.747 38.1333 197.334 38.1333ZM197.354 36.8133C198.047 36.8133 198.647 36.7333 199.154 36.5733C199.674 36.4133 199.934 36.2133 199.934 35.9733V29.7133C199.52 29.4733 199.074 29.2999 198.594 29.1933C198.127 29.0733 197.68 29.0133 197.254 29.0133C196.534 29.0133 195.947 29.1733 195.494 29.4933C195.054 29.7999 194.727 30.2333 194.514 30.7933C194.314 31.3399 194.214 31.9799 194.214 32.7133C194.214 33.4333 194.294 34.1066 194.454 34.7333C194.614 35.3466 194.92 35.8466 195.374 36.2333C195.827 36.6199 196.487 36.8133 197.354 36.8133Z" fill="black"/>
</svg>
