<svg width="38" height="55" viewBox="0 0 38 55" fill="none" xmlns="http://www.w3.org/2000/svg">
<path d="M4.22656 45.375C4.22656 46.1318 4.29248 46.8081 4.42432 47.4038C4.56104 47.9995 4.76855 48.5049 5.04688 48.9199C5.3252 49.335 5.68164 49.6523 6.11621 49.8721C6.55078 50.0918 7.06836 50.2017 7.66895 50.2017C8.0498 50.2017 8.40869 50.1602 8.74561 50.0771C9.0874 49.9941 9.3877 49.9038 9.64648 49.8062C9.94922 49.689 10.2251 49.5547 10.4741 49.4033L10.8843 50.4214C10.5913 50.5874 10.2739 50.7339 9.93213 50.8608C9.63916 50.9731 9.29736 51.0732 8.90674 51.1611C8.521 51.2539 8.10596 51.3003 7.66162 51.3003C6.82178 51.3003 6.09424 51.1636 5.479 50.8901C4.86377 50.6167 4.35352 50.2261 3.94824 49.7183C3.54785 49.2056 3.24756 48.5854 3.04736 47.8579C2.85205 47.1255 2.75439 46.3003 2.75439 45.3823C2.75439 44.938 2.78857 44.479 2.85693 44.0054C2.92529 43.5269 3.0376 43.0581 3.19385 42.5991C3.3501 42.1401 3.55273 41.7056 3.80176 41.2954C4.05566 40.8853 4.36572 40.5264 4.73193 40.2188C5.10303 39.9062 5.53271 39.6597 6.021 39.479C6.51416 39.2983 7.08057 39.208 7.72021 39.208C8.14502 39.208 8.53809 39.2397 8.89941 39.3032C9.26074 39.3618 9.57324 39.4277 9.83691 39.501C10.1445 39.5889 10.4253 39.6865 10.6792 39.7939L10.3496 40.856C10.1299 40.7583 9.88574 40.6704 9.61719 40.5923C9.38281 40.5239 9.10938 40.4629 8.79688 40.4092C8.48926 40.3506 8.14746 40.3213 7.77148 40.3213C7.14648 40.3213 6.60938 40.4482 6.16016 40.7021C5.71094 40.9561 5.34229 41.3076 5.0542 41.7568C4.771 42.2061 4.56104 42.7407 4.42432 43.3608C4.29248 43.9761 4.22656 44.6475 4.22656 45.375ZM15.7988 43.2876C15.5791 43.2876 15.3472 43.3071 15.103 43.3462C14.8638 43.3853 14.6245 43.4438 14.3853 43.522C14.1509 43.5952 13.9214 43.688 13.6968 43.8003C13.4771 43.9077 13.2769 44.0322 13.0962 44.1738L12.5981 43.207C12.8765 43.0557 13.1353 42.9238 13.3745 42.8115C13.6138 42.6943 13.8555 42.5967 14.0996 42.5186C14.3486 42.4404 14.6074 42.3818 14.876 42.3428C15.1494 42.3037 15.457 42.2842 15.7988 42.2842C16.5361 42.2842 17.1245 42.3647 17.564 42.5259C18.0083 42.687 18.3452 42.936 18.5747 43.2729C18.8091 43.6099 18.9604 44.0396 19.0288 44.562C19.1021 45.0845 19.1387 45.707 19.1387 46.4297V51H18.1133L17.9082 49.6963C17.5469 50.2041 17.1172 50.5728 16.6191 50.8022C16.1211 51.0317 15.562 51.1465 14.9419 51.1465C14.5024 51.1465 14.1045 51.0903 13.748 50.978C13.3965 50.8657 13.0962 50.6997 12.8472 50.48C12.5981 50.2554 12.4053 49.9771 12.2686 49.645C12.1367 49.313 12.0708 48.9272 12.0708 48.4878C12.0708 48.063 12.1514 47.6821 12.3125 47.3452C12.4736 47.0083 12.6909 46.7227 12.9644 46.4883C13.2378 46.2539 13.5552 46.0757 13.9165 45.9536C14.2778 45.8267 14.6587 45.7632 15.0591 45.7632C15.4595 45.7632 15.8232 45.7827 16.1504 45.8218C16.4824 45.8608 16.7656 45.9048 17 45.9536C17.2393 45.9976 17.4248 46.0391 17.5566 46.0781L17.7471 46.1294C17.7471 45.6265 17.7373 45.1943 17.7178 44.833C17.6982 44.4717 17.6274 44.1787 17.5054 43.9541C17.3833 43.7246 17.1904 43.5562 16.9268 43.4487C16.6631 43.3413 16.2871 43.2876 15.7988 43.2876ZM15.2861 50.1431C15.7305 50.1431 16.1504 50.0479 16.5459 49.8574C16.9463 49.667 17.3467 49.3862 17.7471 49.0151V46.8325C17.542 46.8032 17.3418 46.7788 17.1465 46.7593C16.9756 46.7397 16.7925 46.7227 16.5972 46.708C16.4019 46.6885 16.2188 46.6787 16.0479 46.6787C15.6963 46.6787 15.3643 46.6982 15.0518 46.7373C14.7393 46.7715 14.4658 46.8496 14.2314 46.9717C13.9971 47.0938 13.8115 47.2695 13.6748 47.499C13.5381 47.7285 13.4697 48.0337 13.4697 48.4146C13.4697 48.7563 13.5137 49.0396 13.6016 49.2642C13.6895 49.4839 13.8115 49.6597 13.9678 49.7915C14.1289 49.9233 14.3193 50.0161 14.5391 50.0698C14.7637 50.1187 15.0127 50.1431 15.2861 50.1431ZM25.1665 50.1431C25.855 50.1431 26.3774 49.8477 26.7339 49.2568C27.0952 48.666 27.2759 47.7505 27.2759 46.5103C27.2759 45.9487 27.2271 45.4653 27.1294 45.0601C27.0366 44.6548 26.8975 44.3203 26.7119 44.0566C26.5312 43.793 26.3091 43.6001 26.0454 43.478C25.7866 43.3511 25.4937 43.2876 25.1665 43.2876C24.7368 43.2876 24.3047 43.3804 23.8701 43.5659C23.4404 43.7515 23.0059 44.0273 22.5664 44.3936V49.0005C23.3867 49.7622 24.2534 50.1431 25.1665 50.1431ZM25.0859 51.1465C24.8418 51.1465 24.5977 51.1123 24.3535 51.0439C24.1143 50.9756 23.8799 50.8779 23.6504 50.751C23.4209 50.624 23.2012 50.4727 22.9912 50.2969C22.7812 50.1162 22.5859 49.916 22.4053 49.6963L22.2002 51H21.1748V39.4351L22.5664 39.1787V43.4561C22.7568 43.2607 22.9619 43.0898 23.1816 42.9434C23.4014 42.7969 23.6187 42.6748 23.8335 42.5771C24.0532 42.4795 24.2607 42.4062 24.4561 42.3574C24.6562 42.3086 24.8296 42.2842 24.9761 42.2842C26.1382 42.2842 27.0269 42.6309 27.6421 43.3242C28.2573 44.0176 28.5649 45.0796 28.5649 46.5103C28.5649 47.4233 28.4697 48.1777 28.2793 48.7734C28.0889 49.3691 27.8325 49.8428 27.5103 50.1943C27.1929 50.5459 26.8242 50.7925 26.4043 50.9341C25.9844 51.0757 25.5449 51.1465 25.0859 51.1465ZM31.7803 46.7227C31.5312 46.6348 31.2969 46.5273 31.0771 46.4004C30.8574 46.2686 30.667 46.1147 30.5059 45.939C30.3447 45.7583 30.2178 45.5532 30.125 45.3237C30.0322 45.0942 29.9858 44.8354 29.9858 44.5474C29.9858 44.1665 30.064 43.8345 30.2202 43.5513C30.3813 43.2632 30.5938 43.0264 30.8574 42.8408C31.1211 42.6553 31.4214 42.5161 31.7583 42.4233C32.0952 42.3306 32.4443 42.2842 32.8057 42.2842C33.1279 42.2842 33.4404 42.3159 33.7432 42.3794C34.0508 42.4429 34.3315 42.521 34.5854 42.6138C34.8442 42.7065 35.0688 42.8066 35.2593 42.9141C35.4497 43.0166 35.5938 43.1069 35.6914 43.1851L35.2373 44.1079C34.9395 43.8784 34.5903 43.6855 34.1899 43.5293C33.7944 43.3682 33.3647 43.2876 32.9009 43.2876C32.6128 43.2876 32.3589 43.3218 32.1392 43.3901C31.9243 43.4536 31.7437 43.5415 31.5972 43.6538C31.4507 43.7612 31.3408 43.8857 31.2676 44.0273C31.1943 44.1689 31.1577 44.3179 31.1577 44.4741C31.1577 44.7476 31.2627 44.9722 31.4727 45.1479C31.6875 45.3188 31.9829 45.4702 32.3589 45.6021L33.5894 46.0342C33.9653 46.166 34.3047 46.3101 34.6074 46.4663C34.915 46.6226 35.1763 46.8032 35.3911 47.0083C35.6108 47.2134 35.7793 47.4478 35.8965 47.7114C36.0186 47.9751 36.0796 48.2778 36.0796 48.6196C36.0796 48.9272 36.0259 49.2324 35.9185 49.5352C35.8159 49.8379 35.645 50.1089 35.4058 50.3481C35.1714 50.5874 34.8638 50.7827 34.4829 50.9341C34.1021 51.0806 33.6333 51.1538 33.0767 51.1538C32.6958 51.1538 32.3418 51.1196 32.0146 51.0513C31.6924 50.9829 31.4043 50.9023 31.1504 50.8096C30.8965 50.7119 30.6768 50.6118 30.4912 50.5093C30.3057 50.4019 30.1616 50.3115 30.0591 50.2383L30.5205 49.3081C30.6279 49.396 30.772 49.4888 30.9526 49.5864C31.1382 49.6841 31.3408 49.7744 31.5605 49.8574C31.7852 49.9404 32.0171 50.0088 32.2563 50.0625C32.4956 50.1162 32.7251 50.1431 32.9448 50.1431C33.106 50.1431 33.2939 50.1235 33.5088 50.0845C33.7285 50.0454 33.9336 49.9746 34.124 49.8721C34.3193 49.7695 34.4829 49.6279 34.6147 49.4473C34.7515 49.2666 34.8198 49.0371 34.8198 48.7588C34.8198 48.5635 34.7856 48.3926 34.7173 48.2461C34.6489 48.0947 34.5513 47.9629 34.4243 47.8506C34.3022 47.7334 34.1558 47.6309 33.9849 47.543C33.814 47.4551 33.626 47.3745 33.4209 47.3013L31.7803 46.7227Z" fill="black" fill-opacity="0.75"/>
<path d="M15.8335 17H19.0002V19H15.8335V17Z" fill="#545454"/>
<path d="M27.9197 14.17C26.0476 11.2679 23.4937 8.81417 20.4569 7.00005C19.0539 6.15769 17.4547 5.65349 15.7987 5.53147C14.1427 5.40945 12.4804 5.67332 10.9569 6.30005C9.62425 6.89555 8.46466 7.78942 7.57824 8.90446C6.69182 10.0195 6.10522 11.3222 5.86911 12.7C5.78466 13.17 5.72133 13.62 5.65799 14.06C4.66973 14.2118 3.77053 14.6913 3.12089 15.413C2.47126 16.1347 2.11345 17.0516 2.11133 18V24.13C2.11133 24.6605 2.33375 25.1692 2.72966 25.5443C3.12557 25.9193 3.66254 26.13 4.22244 26.13V18C4.22244 17.4696 4.44486 16.9609 4.84077 16.5858C5.23668 16.2108 5.77365 16 6.33355 16H26.1041C28.1385 16.0027 30.0888 16.7695 31.5273 18.1323C32.9658 19.4951 33.7752 21.3427 33.778 23.27V24H31.6669C31.2211 22.9702 30.3906 22.1318 29.334 21.645C28.2773 21.1582 27.0685 21.057 25.9381 21.3607C24.8077 21.6644 23.835 22.3518 23.2054 23.2916C22.5759 24.2315 22.3336 25.358 22.5249 26.4563C22.7162 27.5546 23.3276 28.5477 24.2425 29.2461C25.1574 29.9446 26.3117 30.2994 27.4851 30.243C28.6586 30.1866 29.769 29.7228 30.6046 28.9403C31.4401 28.1577 31.9423 27.111 32.0152 26H33.778C34.3379 26 34.8749 25.7893 35.2708 25.4143C35.6667 25.0392 35.8891 24.5305 35.8891 24V23.27C35.8849 21.112 35.0868 19.0228 33.6323 17.3619C32.1778 15.701 30.1577 14.5724 27.9197 14.17ZM11.6113 14H7.31522C7.31522 13.69 7.41022 13.37 7.47355 13C7.65592 11.9015 8.13184 10.8654 8.85608 9.99026C9.58031 9.11511 10.5288 8.43 11.6113 8.00005V14ZM13.7224 14V7.58005C15.6931 7.33761 17.6917 7.74737 19.3802 8.74005C21.6853 10.1002 23.6747 11.8897 25.228 14H13.7224ZM27.2336 28.38C26.7116 28.38 26.2014 28.2334 25.7675 27.9587C25.3335 27.684 24.9953 27.2936 24.7955 26.8368C24.5958 26.3799 24.5435 25.8773 24.6454 25.3923C24.7472 24.9074 24.9985 24.4619 25.3676 24.1123C25.7366 23.7626 26.2068 23.5245 26.7187 23.4281C27.2306 23.3316 27.7612 23.3811 28.2434 23.5703C28.7256 23.7596 29.1377 24.08 29.4277 24.4911C29.7177 24.9022 29.8724 25.3856 29.8724 25.88C29.8724 26.5431 29.5944 27.179 29.0995 27.6478C28.6046 28.1167 27.9334 28.38 27.2336 28.38Z" fill="#545454"/>
<path d="M14.9573 24.0002C14.5114 22.9703 13.681 22.132 12.6244 21.6452C11.5677 21.1583 10.3589 21.0571 9.22849 21.3608C8.09811 21.6646 7.12533 22.3519 6.49578 23.2918C5.86623 24.2316 5.62399 25.3582 5.81527 26.4564C6.00655 27.5547 6.61797 28.5478 7.53285 29.2463C8.44774 29.9447 9.60204 30.2996 10.7755 30.2431C11.9489 30.1867 13.0594 29.723 13.8949 28.9404C14.7305 28.1578 15.2326 27.1112 15.3056 26.0002H20.9V25.7502C20.8791 25.1602 20.9503 24.5705 21.1111 24.0002H14.9573ZM10.5556 28.3802C10.0337 28.3802 9.52346 28.2336 9.0895 27.9589C8.65554 27.6842 8.3173 27.2937 8.11757 26.8369C7.91784 26.3801 7.86558 25.8774 7.96741 25.3925C8.06923 24.9075 8.32056 24.462 8.68961 24.1124C9.05867 23.7628 9.52887 23.5247 10.0408 23.4282C10.5527 23.3318 11.0833 23.3813 11.5654 23.5705C12.0476 23.7597 12.4598 24.0801 12.7497 24.4913C13.0397 24.9024 13.1945 25.3857 13.1945 25.8802C13.1945 26.5432 12.9165 27.1791 12.4216 27.648C11.9267 28.1168 11.2555 28.3802 10.5556 28.3802Z" fill="#545454"/>
</svg>
