<svg width="25" height="25" viewBox="0 0 25 25" fill="none" xmlns="http://www.w3.org/2000/svg">
<path d="M1.0628 0C0.780929 0 0.510602 0.109747 0.311288 0.305097C0.111974 0.500448 0 0.765399 0 1.04167C0 1.31793 0.111974 1.58289 0.311288 1.77824C0.510602 1.97359 0.780929 2.08333 1.0628 2.08333H1.5857C1.81648 2.08372 2.04086 2.15773 2.22493 2.29416C2.409 2.4306 2.54276 2.62205 2.60599 2.83958L5.9772 14.4021C6.16787 15.0546 6.57011 15.6285 7.12311 16.0371C7.67611 16.4457 8.3498 16.6667 9.04232 16.6667H18.7542C19.3916 16.6668 20.0143 16.4797 20.5421 16.1295C21.0699 15.7793 21.4785 15.2821 21.7152 14.7021L24.8483 7.02292C24.9771 6.70693 25.025 6.36483 24.9877 6.02652C24.9505 5.68821 24.8293 5.36399 24.6347 5.08221C24.4401 4.80042 24.178 4.56964 23.8714 4.41004C23.5648 4.25044 23.2229 4.16688 22.8757 4.16667H5.20348L4.64869 2.26667C4.45851 1.61411 4.05675 1.03997 3.50414 0.631034C2.95154 0.222098 2.27813 0.000592433 1.5857 0H1.0628ZM8.02203 13.8271L5.8114 6.25H22.8736L19.7405 13.9292C19.6615 14.1223 19.5254 14.2878 19.3496 14.4044C19.1738 14.521 18.9664 14.5833 18.7542 14.5833H9.04232C8.81154 14.5829 8.58716 14.5089 8.40309 14.3725C8.21902 14.2361 8.08526 14.0446 8.02203 13.8271ZM9.56521 25C9.98392 25 10.3985 24.9192 10.7854 24.7621C11.1722 24.6051 11.5237 24.3749 11.8198 24.0847C12.1158 23.7945 12.3507 23.45 12.5109 23.0709C12.6711 22.6917 12.7536 22.2854 12.7536 21.875C12.7536 21.4646 12.6711 21.0583 12.5109 20.6791C12.3507 20.3 12.1158 19.9555 11.8198 19.6653C11.5237 19.3751 11.1722 19.1449 10.7854 18.9879C10.3985 18.8308 9.98392 18.75 9.56521 18.75C8.7196 18.75 7.90861 19.0792 7.31067 19.6653C6.71273 20.2513 6.37681 21.0462 6.37681 21.875C6.37681 22.7038 6.71273 23.4987 7.31067 24.0847C7.90861 24.6708 8.7196 25 9.56521 25ZM9.56521 22.9167C9.28334 22.9167 9.01301 22.8069 8.8137 22.6116C8.61439 22.4162 8.50241 22.1513 8.50241 21.875C8.50241 21.5987 8.61439 21.3338 8.8137 21.1384C9.01301 20.9431 9.28334 20.8333 9.56521 20.8333C9.84709 20.8333 10.1174 20.9431 10.3167 21.1384C10.516 21.3338 10.628 21.5987 10.628 21.875C10.628 22.1513 10.516 22.4162 10.3167 22.6116C10.1174 22.8069 9.84709 22.9167 9.56521 22.9167ZM18.0676 25C18.4863 25 18.9009 24.9192 19.2878 24.7621C19.6746 24.6051 20.0261 24.3749 20.3222 24.0847C20.6182 23.7945 20.8531 23.45 21.0133 23.0709C21.1736 22.6917 21.256 22.2854 21.256 21.875C21.256 21.4646 21.1736 21.0583 21.0133 20.6791C20.8531 20.3 20.6182 19.9555 20.3222 19.6653C20.0261 19.3751 19.6746 19.1449 19.2878 18.9879C18.9009 18.8308 18.4863 18.75 18.0676 18.75C17.222 18.75 16.411 19.0792 15.8131 19.6653C15.2151 20.2513 14.8792 21.0462 14.8792 21.875C14.8792 22.7038 15.2151 23.4987 15.8131 24.0847C16.411 24.6708 17.222 25 18.0676 25ZM18.0676 22.9167C17.7858 22.9167 17.5154 22.8069 17.3161 22.6116C17.1168 22.4162 17.0048 22.1513 17.0048 21.875C17.0048 21.5987 17.1168 21.3338 17.3161 21.1384C17.5154 20.9431 17.7858 20.8333 18.0676 20.8333C18.3495 20.8333 18.6198 20.9431 18.8191 21.1384C19.0185 21.3338 19.1304 21.5987 19.1304 21.875C19.1304 22.1513 19.0185 22.4162 18.8191 22.6116C18.6198 22.8069 18.3495 22.9167 18.0676 22.9167Z" fill="black"/>
</svg>
