<svg width="16" height="16" viewBox="0 0 16 16" fill="none" xmlns="http://www.w3.org/2000/svg">
<path d="M7.99984 12.3233L10.8285 9.4953C11.3878 8.93586 11.7687 8.22313 11.923 7.44723C12.0773 6.67132 11.9981 5.86709 11.6953 5.13622C11.3925 4.40536 10.8798 3.78068 10.2221 3.34119C9.56427 2.90169 8.79094 2.66711 7.99984 2.66711C7.20874 2.66711 6.43541 2.90169 5.77763 3.34119C5.11985 3.78068 4.60716 4.40536 4.30439 5.13622C4.00162 5.86709 3.92236 6.67132 4.07665 7.44723C4.23094 8.22313 4.61183 8.93586 5.17117 9.4953L7.99984 12.3233ZM11.7712 10.438L7.99984 14.2093L4.22851 10.438C3.48265 9.69208 2.97473 8.74177 2.76896 7.70721C2.5632 6.67265 2.66883 5.60031 3.07251 4.62579C3.47618 3.65126 4.15977 2.81833 5.03683 2.23231C5.91388 1.64628 6.94502 1.3335 7.99984 1.3335C9.05466 1.3335 10.0858 1.64628 10.9629 2.23231C11.8399 2.81833 12.5235 3.65126 12.9272 4.62579C13.3308 5.60031 13.4365 6.67265 13.2307 7.70721C13.0249 8.74177 12.517 9.69208 11.7712 10.438ZM3.33317 14.6666H12.6665V16H3.33317V14.6666Z" fill="white"/>
</svg>
