<svg width="20" height="25" viewBox="0 0 20 25" fill="none" xmlns="http://www.w3.org/2000/svg">
<path d="M12.3764 16.4673H7.03092C6.32357 16.4673 4.98486 16.8733 4.98486 18.411V20.5074C4.98486 21.1797 5.41198 22.4512 7.03092 22.4512H12.3758C13.0832 22.4512 14.4216 22.0449 14.4219 20.5074V18.411C14.4219 17.7385 13.9942 16.4673 12.3764 16.4673ZM12.3764 17.2808C12.4762 17.2808 12.5648 17.2905 12.6486 17.3045V17.8178C12.6486 18.879 11.6589 18.9455 11.4573 18.9481H10.1309V18.1702H9.27491V18.9481H7.94642C6.82848 18.9481 6.75969 18.0044 6.75729 17.8178V17.3102C6.88014 17.2865 6.98106 17.2814 7.03062 17.2808H12.3764V17.2808ZM13.5656 20.5072C13.5656 21.5683 12.5759 21.6351 12.3746 21.6374H7.03092C5.91178 21.6374 5.84269 20.6938 5.84029 20.5072V18.411C5.84029 18.243 5.86732 18.1023 5.90967 17.9805C5.97365 18.6761 6.45152 19.761 7.94642 19.761H9.27491V20.7477H10.1309V19.761H11.4594C12.1361 19.761 13.3881 19.3858 13.4941 18.0056C13.5542 18.1848 13.5644 18.3451 13.5653 18.411V20.5072H13.5656Z" fill="black"/>
<path d="M17.836 14.6178H17.5777V10.1596C17.5777 9.84603 17.4251 9.214 16.8764 8.79825C17.2716 8.50121 17.5777 8.02726 17.5777 7.29364V5.1978C17.5777 4.52553 17.1503 3.25405 15.5316 3.25405H13.5108C13.3081 1.42842 11.678 0 9.70315 0C7.72828 0 6.09822 1.42842 5.89548 3.25405H3.87465C3.1667 3.25405 1.8286 3.6598 1.8286 5.1978V7.29364C1.8286 7.71538 1.9968 8.37166 2.52093 8.8031C2.12986 9.07247 1.8286 9.50019 1.8286 10.1596V14.6178H1.56938C0.418102 14.6178 0 15.5095 0 16.109V20.9598C0 22.0538 0.938326 22.451 1.56938 22.451H1.8286V23.2394C1.8286 23.7294 2.19594 25 3.87465 25H15.5313C16.2393 25 17.5774 24.6322 17.5774 23.2394V22.451H17.8357C18.4668 22.451 19.4051 22.0538 19.4051 20.9598V16.109C19.4054 15.5095 18.9873 14.6178 17.836 14.6178ZM1.8289 21.6372H1.57179C1.40268 21.6338 0.856028 21.5753 0.856028 20.9596V17.2806H1.8289V21.6372ZM1.8289 16.4671H0.856028V16.1087C0.859031 15.9526 0.919704 15.431 1.56938 15.431H1.8289V16.4671ZM9.70315 0.813512C11.2056 0.813512 12.4475 1.87755 12.6455 3.25405H12.0135C11.8213 2.20655 10.8598 1.40674 9.70255 1.40674C8.54586 1.40674 7.5841 2.20627 7.39217 3.25405H6.76082C6.95875 1.87755 8.20074 0.813512 9.70315 0.813512ZM11.1323 3.25405H8.27343C8.45064 2.65968 9.02103 2.21997 9.70285 2.21997C10.385 2.21997 10.955 2.65968 11.1323 3.25405ZM2.68522 7.29393V5.19808C2.68522 4.13461 3.67822 4.06956 3.87495 4.06727H15.5316C16.6508 4.06727 16.7196 5.01147 16.722 5.19808V7.29393C16.722 8.14995 16.0777 8.35825 15.7233 8.40847C15.6602 8.40448 15.5986 8.39934 15.5316 8.39934H13.7424V8.08689C14.2001 7.92168 14.5278 7.50394 14.5278 7.01201C14.5278 6.37598 13.9836 5.85894 13.3141 5.85894C12.6452 5.85894 12.1015 6.37598 12.1015 7.01201C12.1015 7.50422 12.4289 7.92168 12.8864 8.08689V8.39934H6.52023V8.08689C6.97768 7.92168 7.30507 7.50394 7.30507 7.01201C7.30507 6.37598 6.76112 5.85894 6.09221 5.85894C5.42271 5.85894 4.87846 6.37598 4.87846 7.01201C4.87846 7.50422 5.20645 7.92168 5.6642 8.08718V8.39934H3.87465C3.80887 8.39934 3.73619 8.40391 3.66079 8.41076C2.7483 8.29776 2.68733 7.4677 2.68522 7.29393ZM5.73478 7.01201C5.73478 6.82454 5.89548 6.67245 6.09221 6.67245C6.28895 6.67245 6.44904 6.82454 6.44904 7.01201C6.44904 7.19862 6.28895 7.35128 6.09221 7.35128C5.89548 7.35128 5.73478 7.19862 5.73478 7.01201ZM12.957 7.01201C12.957 6.82454 13.1173 6.67245 13.3138 6.67245C13.5114 6.67245 13.6715 6.82454 13.6712 7.01201C13.6712 7.19862 13.5108 7.35128 13.3138 7.35128C13.117 7.35128 12.957 7.19862 12.957 7.01201ZM16.7217 23.2389C16.7217 24.1477 15.6545 24.1848 15.5307 24.1859H3.87495C2.75971 24.1859 2.68793 23.3941 2.68522 23.2389V10.1593C2.68522 9.44798 3.33761 9.27163 3.68002 9.22712C3.74399 9.23169 3.80677 9.23682 3.87465 9.23682H5.6642V10.2001H6.52023V9.23682H12.8861V10.2001H13.7421V9.23682H15.5313C15.598 9.23682 15.6716 9.23169 15.7479 9.22398C16.6553 9.32014 16.719 10.015 16.7217 10.1593V23.2389V23.2389ZM18.5497 20.9596C18.5497 21.5753 18.0033 21.6338 17.8339 21.6372H17.5774V17.2806H18.5494V20.9596H18.5497ZM18.5497 16.4671H17.5777V15.431H17.8363C18.486 15.431 18.5467 15.9526 18.5497 16.1087V16.4671Z" fill="black"/>
<path d="M8 13L9.33333 14L12 12" stroke="black" stroke-linecap="round"/>
</svg>
