<svg width="24" height="25" viewBox="0 0 24 25" fill="none" xmlns="http://www.w3.org/2000/svg">
<path d="M7.77594 2.75726C8.53584 2.75726 9.15325 2.13984 9.15325 1.37995C9.15325 0.620053 8.53584 0 7.77594 0C7.01605 0 6.396 0.617414 6.396 1.37995C6.396 2.1372 7.01341 2.75726 7.77594 2.75726ZM7.77594 1.00264C7.98439 1.00264 8.15061 1.1715 8.15061 1.37995C8.15061 1.58839 7.98175 1.75462 7.77594 1.75462C7.57014 1.75462 7.39863 1.58575 7.39863 1.37731C7.39863 1.16887 7.5675 1.00264 7.77594 1.00264Z" fill="black"/>
<path d="M6.94713 17.314C6.18724 17.314 5.56982 17.9314 5.56982 18.6939C5.56982 19.4564 6.18724 20.0739 6.94713 20.0739C7.70703 20.0739 8.32708 19.4564 8.32708 18.6939C8.32708 17.9314 7.70703 17.314 6.94713 17.314ZM6.94713 19.0686C6.73869 19.0686 6.57246 18.8997 6.57246 18.6913C6.57246 18.4828 6.74133 18.314 6.94713 18.314C7.15294 18.314 7.32444 18.4828 7.32444 18.6913C7.32444 18.8997 7.15558 19.0686 6.94713 19.0686Z" fill="black"/>
<path d="M11.7334 2.68611C12.0803 2.68611 12.3614 2.40496 12.3614 2.05814C12.3614 1.71133 12.0803 1.43018 11.7334 1.43018C11.3866 1.43018 11.1055 1.71133 11.1055 2.05814C11.1055 2.40496 11.3866 2.68611 11.7334 2.68611Z" fill="black"/>
<path d="M17.8863 24.6729C18.2331 24.6729 18.5142 24.3918 18.5142 24.045C18.5142 23.6981 18.2331 23.417 17.8863 23.417C17.5395 23.417 17.2583 23.6981 17.2583 24.045C17.2583 24.3918 17.5395 24.6729 17.8863 24.6729Z" fill="black"/>
<path d="M23.4986 22.4852H22.7467V21.7333C22.7467 21.4562 22.5224 21.2319 22.2453 21.2319C21.9683 21.2319 21.744 21.4562 21.744 21.7333V22.4852H20.992C20.715 22.4852 20.4907 22.7095 20.4907 22.9866C20.4907 23.2636 20.715 23.4879 20.992 23.4879H21.744V24.2398C21.744 24.5169 21.9683 24.7412 22.2453 24.7412C22.5224 24.7412 22.7467 24.5169 22.7467 24.2398V23.4879H23.4986C23.7757 23.4879 24 23.2636 24 22.9866C24 22.7095 23.7757 22.4852 23.4986 22.4852Z" fill="black"/>
<path d="M1.2533 2.95516V3.70713C1.2533 3.98418 1.47757 4.20845 1.75462 4.20845C2.03166 4.20845 2.25594 3.98418 2.25594 3.70713V2.95516H3.00792C3.28496 2.95516 3.50923 2.73088 3.50923 2.45384C3.50923 2.17679 3.28496 1.95252 3.00792 1.95252H2.25594V1.20054C2.25594 0.923493 2.03166 0.699219 1.75462 0.699219C1.47757 0.699219 1.2533 0.923493 1.2533 1.20054V1.95252H0.501319C0.224274 1.95252 0 2.17679 0 2.45384C0 2.73088 0.224274 2.95516 0.501319 2.95516H1.2533Z" fill="black"/>
<path d="M23.57 16.1212L19.5542 1.73602C19.4222 1.26636 19.0845 0.896965 18.628 0.722823C18.1716 0.54868 17.6729 0.604089 17.2639 0.867942L13.3352 3.41675C13.0027 3.63311 12.6149 3.73865 12.2191 3.7281L6.92092 3.56715C6.31934 3.54868 5.73359 3.71227 5.22699 4.03945L1.14256 6.68852C0.356278 7.19776 -0.0025607 8.14762 0.250737 9.05L4.26921 23.4352C4.40113 23.9049 4.73886 24.2743 5.19533 24.4484C5.37211 24.5144 5.55417 24.5487 5.73623 24.5487C6.02382 24.5487 6.30878 24.4669 6.55944 24.3033L10.4856 21.7571C10.818 21.5408 11.2059 21.4379 11.6017 21.4458L16.8998 21.6067C17.5014 21.6278 18.0871 21.4616 18.5937 21.1344L22.6782 18.4854C23.4645 17.9735 23.8233 17.0236 23.57 16.1212ZM22.132 17.641L18.0476 20.2901C17.7151 20.5065 17.3299 20.612 16.9315 20.6015L11.6333 20.4405C11.0317 20.4194 10.446 20.5856 9.93939 20.9128L6.01327 23.459C5.87343 23.5487 5.70456 23.5672 5.54889 23.5091C5.39322 23.4511 5.27712 23.3244 5.23491 23.1635L1.21644 8.78087C1.08187 8.3033 1.27185 7.79934 1.68873 7.53021L5.77316 4.88113C6.08979 4.67533 6.4539 4.56715 6.82857 4.56715C6.84968 4.56715 6.86815 4.56715 6.88926 4.56715L12.1874 4.7281C12.789 4.75185 13.3747 4.58298 13.8787 4.2558L17.8048 1.70963C17.9447 1.61992 18.1135 1.60145 18.2692 1.6595C18.4249 1.71755 18.541 1.84419 18.5832 2.00514L22.6017 16.3904C22.7389 16.8706 22.5489 17.3719 22.132 17.641Z" fill="black"/>
<path d="M6.69903 7.91048C6.75972 8.13212 6.96288 8.27724 7.18188 8.27724C7.22674 8.27724 7.27159 8.27196 7.31645 8.25877C7.58294 8.18489 7.73861 7.90784 7.66473 7.64135L7.22674 6.06879C7.15286 5.8023 6.87581 5.64663 6.60932 5.72051C6.34283 5.79439 6.18716 6.07143 6.26104 6.33792L6.69903 7.91048Z" fill="black"/>
<path d="M8.43279 10.3876C8.35891 10.1212 8.08187 9.96548 7.81538 10.0394C7.54889 10.1132 7.39321 10.3903 7.46709 10.6568L9.8787 19.2874C9.93939 19.509 10.1426 19.6541 10.3616 19.6541C10.4064 19.6541 10.4513 19.6489 10.4961 19.6357C10.7626 19.5618 10.9183 19.2847 10.8444 19.0182L8.43279 10.3876Z" fill="black"/>
<path d="M17.2219 17.6201C17.148 17.3536 16.8709 17.1979 16.6044 17.2718C16.3379 17.3457 16.1823 17.6227 16.2562 17.8892L16.6493 19.2982C16.71 19.5198 16.9131 19.6649 17.1321 19.6649C17.177 19.6649 17.2219 19.6596 17.2667 19.6464C17.5332 19.5726 17.6889 19.2955 17.615 19.029L17.2219 17.6201Z" fill="black"/>
<path d="M15.488 15.1453C15.5487 15.3669 15.7519 15.5121 15.9709 15.5121C16.0157 15.5121 16.0606 15.5068 16.1054 15.4936C16.3719 15.4197 16.5276 15.1427 16.4537 14.8762L13.9972 6.08198C13.9234 5.81549 13.6463 5.65981 13.3798 5.73369C13.1133 5.80757 12.9577 6.08462 13.0315 6.35111L15.488 15.1453Z" fill="black"/>
<path d="M15.699 6.82071L16.5037 7.27454L16.0499 8.07929C15.9127 8.31939 15.9998 8.62546 16.2399 8.76266C16.3164 8.80752 16.4035 8.82863 16.4853 8.82863C16.6594 8.82863 16.8309 8.73628 16.9233 8.57269L17.3771 7.76794L18.1818 8.22177C18.2583 8.26662 18.3454 8.28773 18.4272 8.28773C18.6014 8.28773 18.7729 8.19538 18.8652 8.03179C19.0024 7.79169 18.9153 7.48562 18.6752 7.34842L17.8705 6.89459L18.3243 6.08984C18.4615 5.84974 18.3744 5.54367 18.1343 5.40646C17.8916 5.26926 17.5882 5.35633 17.451 5.59644L16.9971 6.40119L16.1924 5.94736C15.9496 5.81016 15.6462 5.89723 15.509 6.13733C15.3718 6.38008 15.4589 6.68615 15.699 6.82071Z" fill="black"/>
<path d="M6.01069 15.3377C5.7442 15.4116 5.58853 15.6886 5.6624 15.9551L5.79961 16.4459C5.86029 16.6675 6.06346 16.8126 6.28246 16.8126C6.32731 16.8126 6.37217 16.8074 6.41702 16.7942C6.68351 16.7203 6.83919 16.4432 6.76531 16.1767L6.6281 15.686C6.55422 15.4195 6.27718 15.2638 6.01069 15.3377Z" fill="black"/>
<path d="M9.23997 9.62779C9.51965 9.70958 9.78087 9.83623 10.021 10.0025C10.108 10.0631 10.2083 10.0922 10.3059 10.0922C10.4642 10.0922 10.6199 10.0157 10.7175 9.87581C10.8759 9.6489 10.8178 9.33491 10.5909 9.17924C10.2637 8.95233 9.90488 8.78082 9.52229 8.66737C9.2558 8.58821 8.97876 8.74125 8.8996 9.0051C8.82308 9.27159 8.97612 9.54863 9.23997 9.62779Z" fill="black"/>
<path d="M19.1558 12.2666L18.9684 11.5991C18.8946 11.3326 18.6202 11.1769 18.351 11.2508C18.0845 11.3247 17.9289 11.6017 18.0027 11.8682L18.1901 12.5357C18.2165 12.6281 18.2376 12.7204 18.2534 12.8128C18.2956 13.0582 18.5067 13.2297 18.7468 13.2297C18.7758 13.2297 18.8022 13.227 18.8312 13.2218C19.103 13.1743 19.2877 12.9157 19.2402 12.6439C19.2191 12.5199 19.1901 12.3906 19.1558 12.2666Z" fill="black"/>
<path d="M12.8891 14.2085C12.868 14.1505 12.8496 14.0924 12.8337 14.0317L12.6174 13.2534C12.5435 12.9869 12.2664 12.8312 11.9999 12.9051C11.7335 12.979 11.5778 13.256 11.6517 13.5225L11.868 14.3009C11.8918 14.3827 11.9155 14.4644 11.9445 14.5436C12.0184 14.7494 12.211 14.8761 12.4168 14.8761C12.4722 14.8761 12.5303 14.8655 12.5857 14.847C12.8469 14.7573 12.9841 14.4697 12.8891 14.2085Z" fill="black"/>
<path d="M11.826 12.2847C12.0925 12.2108 12.2481 11.9338 12.1742 11.6673L12.0529 11.2293C11.9922 11.0156 11.9157 10.8071 11.818 10.6093C11.6967 10.3586 11.3985 10.2557 11.1479 10.3771C10.8998 10.4984 10.7943 10.7966 10.9157 11.0473C10.9869 11.1924 11.0423 11.3454 11.0872 11.5011L11.2085 11.9391C11.2692 12.1607 11.4724 12.3058 11.6914 12.3058C11.7363 12.3032 11.7811 12.2979 11.826 12.2847Z" fill="black"/>
<path d="M16.5779 16.8417C16.7204 16.8022 16.8628 16.752 17 16.6966C17.256 16.5911 17.3773 16.2982 17.2718 16.0423C17.1663 15.7863 16.8734 15.665 16.6174 15.7705C16.5172 15.8127 16.4143 15.847 16.3087 15.876L16.1742 15.913C16.037 15.9499 15.8971 15.9789 15.7573 15.9948C15.4829 16.0264 15.285 16.2771 15.3193 16.5515C15.3483 16.8074 15.5647 16.9948 15.8153 16.9948C15.8338 16.9948 15.8549 16.9948 15.8734 16.9921C16.0634 16.971 16.256 16.9314 16.4407 16.8787L16.5779 16.8417Z" fill="black"/>
<path d="M7.47733 8.65177C7.14751 8.74412 6.83617 8.87868 6.54593 9.05546C6.30846 9.19794 6.23459 9.50665 6.37707 9.74412C6.47205 9.89979 6.63564 9.98422 6.80715 9.98422C6.89685 9.98422 6.98656 9.96048 7.06572 9.91035C7.2768 9.78106 7.50635 9.68343 7.74646 9.61483C7.78604 9.60428 7.82561 9.59372 7.86783 9.58317C8.13696 9.52248 8.30583 9.25335 8.24514 8.98159C8.18445 8.70982 7.91533 8.54359 7.64356 8.60428C7.58815 8.62275 7.53274 8.63594 7.47733 8.65177Z" fill="black"/>
<path d="M14.3984 15.8022C14.1293 15.6887 13.8839 15.5357 13.6622 15.3457C13.4538 15.1637 13.1372 15.1848 12.9551 15.3959C12.7731 15.607 12.7942 15.9209 13.0052 16.103C13.306 16.3642 13.6438 16.5753 14.0105 16.7283C14.0738 16.7547 14.1398 16.7679 14.2031 16.7679C14.3984 16.7679 14.5857 16.6518 14.6649 16.4592C14.7731 16.2033 14.6543 15.9104 14.3984 15.8022Z" fill="black"/>
<path d="M18.7731 13.8788C18.5119 13.7838 18.2243 13.921 18.1319 14.1796C18.0343 14.454 17.8918 14.7073 17.7124 14.9368C17.5409 15.1558 17.5805 15.4698 17.7968 15.6413C17.8892 15.7126 17.9974 15.7469 18.1055 15.7469C18.2533 15.7469 18.4011 15.6809 18.5013 15.5543C18.7467 15.2403 18.9393 14.892 19.0739 14.5173C19.1662 14.2614 19.0317 13.9738 18.7731 13.8788Z" fill="black"/>
<path d="M5.83665 14.7178C6.10314 14.644 6.25881 14.3669 6.18493 14.1004L5.90789 13.1083C5.83401 12.8419 5.55697 12.6862 5.29047 12.7601C5.02398 12.8339 4.86831 13.111 4.94219 13.3775L5.21923 14.3696C5.27992 14.5912 5.48309 14.7363 5.70208 14.7363C5.74694 14.7363 5.79179 14.731 5.83665 14.7178Z" fill="black"/>
<path d="M8.40876 10.9557C8.44042 10.961 8.47208 10.9663 8.50375 10.9663C8.73858 10.9663 8.94966 10.8 8.99451 10.5599C9.04992 10.275 9.15018 10.0006 9.29266 9.74727C9.42723 9.50453 9.3428 9.2011 9.10005 9.0639C8.85731 8.92933 8.55388 9.01376 8.41668 9.25651C8.22142 9.60479 8.08422 9.97683 8.0077 10.3673C7.96021 10.6391 8.13699 10.9029 8.40876 10.9557Z" fill="black"/>
<path d="M17.768 9.16338C17.5015 9.23726 17.3458 9.5143 17.4197 9.7808L17.5569 10.2716C17.6203 10.4932 17.8208 10.6383 18.0398 10.6383C18.0846 10.6383 18.1295 10.633 18.1743 10.6198C18.4408 10.546 18.5965 10.2689 18.5226 10.0024L18.3854 9.51167C18.3115 9.24517 18.0345 9.0895 17.768 9.16338Z" fill="black"/>
</svg>
