<svg width="25" height="25" viewBox="0 0 25 25" fill="none" xmlns="http://www.w3.org/2000/svg">
<path d="M15.1786 0C14.4682 0 13.7869 0.303914 13.2845 0.844884C12.7822 1.38585 12.5 2.11957 12.5 2.88462V6.73077C12.5001 7.32722 12.6718 7.90898 12.9916 8.39596C13.3114 8.88294 13.7635 9.25118 14.2857 9.45V11.5385C14.2858 11.7212 14.3342 11.9001 14.4252 12.0542C14.5163 12.2084 14.6463 12.3314 14.7999 12.4089C14.9536 12.4864 15.1245 12.5151 15.2928 12.4917C15.461 12.4684 15.6196 12.3939 15.75 12.2769L18.7143 9.61538H22.3214C23.0318 9.61538 23.7131 9.31147 24.2155 8.7705C24.7178 8.22953 25 7.49582 25 6.73077V2.88462C25 2.11957 24.7178 1.38585 24.2155 0.844884C23.7131 0.303914 23.0318 0 22.3214 0H15.1786ZM14.2857 2.88462C14.2857 2.6296 14.3798 2.38503 14.5472 2.20471C14.7147 2.02438 14.9418 1.92308 15.1786 1.92308H22.3214C22.5582 1.92308 22.7853 2.02438 22.9528 2.20471C23.1202 2.38503 23.2143 2.6296 23.2143 2.88462V6.73077C23.2143 6.98578 23.1202 7.23036 22.9528 7.41068C22.7853 7.591 22.5582 7.69231 22.3214 7.69231H18.3929C18.184 7.69241 17.9818 7.77134 17.8214 7.91538L16.0714 9.48462V8.65385C16.0714 8.39883 15.9774 8.15426 15.8099 7.97394C15.6425 7.79361 15.4154 7.69231 15.1786 7.69231C14.9418 7.69231 14.7147 7.591 14.5472 7.41068C14.3798 7.23036 14.2857 6.98578 14.2857 6.73077V2.88462ZM3.57143 9.61538C3.57143 8.59532 3.9477 7.61704 4.61748 6.89574C5.28725 6.17445 6.19566 5.76923 7.14286 5.76923C8.09006 5.76923 8.99847 6.17445 9.66824 6.89574C10.338 7.61704 10.7143 8.59532 10.7143 9.61538C10.7143 10.6354 10.338 11.6137 9.66824 12.335C8.99847 13.0563 8.09006 13.4615 7.14286 13.4615C6.19566 13.4615 5.28725 13.0563 4.61748 12.335C3.9477 11.6137 3.57143 10.6354 3.57143 9.61538ZM7.14286 7.69231C6.66926 7.69231 6.21505 7.89492 5.88017 8.25556C5.54528 8.61621 5.35714 9.10535 5.35714 9.61538C5.35714 10.1254 5.54528 10.6146 5.88017 10.9752C6.21505 11.3359 6.66926 11.5385 7.14286 11.5385C7.61646 11.5385 8.07066 11.3359 8.40555 10.9752C8.74043 10.6146 8.92857 10.1254 8.92857 9.61538C8.92857 9.10535 8.74043 8.61621 8.40555 8.25556C8.07066 7.89492 7.61646 7.69231 7.14286 7.69231ZM2.67857 15.3846H11.6071C12.3175 15.3846 12.9988 15.6885 13.5012 16.2295C14.0035 16.7705 14.2857 17.5042 14.2857 18.2692C14.2857 20.4154 13.4661 22.1346 12.1214 23.2981C10.7982 24.4423 9.02321 25 7.14286 25C5.2625 25 3.4875 24.4423 2.16429 23.2981C0.819643 22.1346 0 20.4154 0 18.2692C0 17.5042 0.282206 16.7705 0.784535 16.2295C1.28687 15.6885 1.96817 15.3846 2.67857 15.3846V15.3846ZM11.6071 17.3077H2.67857C2.44177 17.3077 2.21467 17.409 2.04723 17.5893C1.87978 17.7696 1.78571 18.0142 1.78571 18.2692C1.78571 19.8404 2.36607 21.0058 3.28214 21.7981C4.22143 22.6096 5.57143 23.0769 7.14286 23.0769C8.71429 23.0769 10.0643 22.6096 11.0036 21.7981C11.9196 21.0058 12.5 19.8404 12.5 18.2692C12.5 18.0142 12.4059 17.7696 12.2385 17.5893C12.071 17.409 11.8439 17.3077 11.6071 17.3077Z" fill="black"/>
</svg>
