<svg width="41" height="54" viewBox="0 0 41 54" fill="none" xmlns="http://www.w3.org/2000/svg">
<path d="M2.5415 50H1.12061V38.4351H7.86621V39.4824H2.5415V43.562H7.41943V44.4043H2.5415V50ZM10.7812 50H9.38965V38.4351L10.7812 38.1787V50ZM13.2275 50V41.438H14.5605V50H13.2275ZM13.103 39.292C13.103 39.1748 13.1226 39.0674 13.1616 38.9697C13.2056 38.8672 13.2642 38.7769 13.3374 38.6987C13.4106 38.6206 13.4961 38.5596 13.5938 38.5156C13.6914 38.4717 13.7964 38.4497 13.9087 38.4497C14.0259 38.4497 14.1333 38.4741 14.231 38.5229C14.3286 38.5669 14.4141 38.6279 14.4873 38.7061C14.5605 38.7842 14.6167 38.8745 14.6558 38.9771C14.6948 39.0796 14.7144 39.1846 14.7144 39.292C14.7144 39.4092 14.6924 39.519 14.6484 39.6216C14.6094 39.7192 14.5532 39.8071 14.48 39.8853C14.4067 39.9634 14.3213 40.0244 14.2236 40.0684C14.126 40.1123 14.021 40.1343 13.9087 40.1343C13.7915 40.1343 13.6841 40.1123 13.5864 40.0684C13.4888 40.0195 13.4033 39.9561 13.3301 39.8779C13.2568 39.7998 13.2007 39.7119 13.1616 39.6143C13.1226 39.5117 13.103 39.4043 13.103 39.292ZM20.0171 52.0288C20.52 52.0288 20.9692 52.0166 21.3647 51.9922C21.7603 51.9678 22.0923 51.9043 22.3608 51.8018C22.6343 51.6992 22.8418 51.543 22.9834 51.333C23.125 51.1279 23.1958 50.8447 23.1958 50.4834C23.1958 50.1611 23.1274 49.9072 22.9907 49.7217C22.8589 49.5312 22.666 49.3872 22.4121 49.2896C22.1631 49.1919 21.8579 49.1309 21.4966 49.1064C21.1401 49.0771 20.7397 49.0625 20.2954 49.0625C20.0708 49.0625 19.834 49.0649 19.585 49.0698C19.3408 49.0698 19.0869 49.0698 18.8232 49.0698C18.7207 49.1479 18.6182 49.2358 18.5156 49.3335C18.4131 49.4312 18.3203 49.5386 18.2373 49.6558C18.1592 49.7729 18.0933 49.8975 18.0396 50.0293C17.9907 50.166 17.9663 50.3125 17.9663 50.4688C17.9663 50.7568 18.0005 50.9985 18.0688 51.1938C18.1372 51.394 18.2495 51.5552 18.4058 51.6772C18.5669 51.8042 18.7769 51.8945 19.0356 51.9482C19.2993 52.002 19.6265 52.0288 20.0171 52.0288ZM20.4272 45.686C20.6958 45.6274 20.9375 45.5615 21.1523 45.4883C21.3672 45.415 21.5479 45.3101 21.6943 45.1733C21.8457 45.0317 21.9604 44.8462 22.0386 44.6167C22.1167 44.3823 22.1558 44.0771 22.1558 43.7012C22.1558 43.4277 22.1167 43.1982 22.0386 43.0127C21.9653 42.8271 21.8506 42.6782 21.6943 42.5659C21.5381 42.4536 21.3403 42.373 21.1011 42.3242C20.8667 42.2754 20.5908 42.251 20.2734 42.251C20.0098 42.251 19.7583 42.2729 19.519 42.3169C19.2847 42.3608 19.0796 42.4414 18.9038 42.5586C18.728 42.6758 18.5864 42.8369 18.479 43.042C18.3765 43.2422 18.3252 43.4985 18.3252 43.811C18.3252 44.0405 18.3618 44.2603 18.4351 44.4702C18.5132 44.6802 18.6108 44.873 18.728 45.0488C18.8501 45.2246 18.9868 45.3784 19.1382 45.5103C19.2896 45.6421 19.4409 45.7446 19.5923 45.8179L20.4272 45.686ZM22.771 42.4927C22.9565 42.6782 23.1006 42.8638 23.2031 43.0493C23.3105 43.2349 23.3643 43.4521 23.3643 43.7012C23.3643 44.0918 23.3154 44.4458 23.2178 44.7632C23.1201 45.0757 22.9663 45.3491 22.7563 45.5835C22.5464 45.8179 22.2754 46.0156 21.9434 46.1768C21.6162 46.3379 21.2183 46.46 20.7495 46.543L18.186 47.0117L18.3252 48.0957H20.4492C21.1377 48.0957 21.731 48.1372 22.229 48.2202C22.7271 48.2983 23.1348 48.4326 23.4521 48.623C23.7695 48.8135 24.0039 49.0625 24.1553 49.3701C24.3066 49.6777 24.3823 50.0586 24.3823 50.5127C24.3823 51.0449 24.2725 51.4795 24.0527 51.8164C23.8379 52.1582 23.5327 52.4243 23.1372 52.6147C22.7466 52.8101 22.2778 52.9443 21.731 53.0176C21.189 53.0908 20.5908 53.1274 19.9365 53.1274C19.4824 53.1274 19.0625 53.0811 18.6768 52.9883C18.2959 52.9004 17.9663 52.7588 17.688 52.5635C17.4097 52.3682 17.1924 52.1167 17.0361 51.8091C16.8848 51.5015 16.8091 51.1304 16.8091 50.6958C16.8091 50.4565 16.8506 50.2417 16.9336 50.0513C17.0166 49.8608 17.124 49.6948 17.2559 49.5532C17.3877 49.4067 17.5366 49.2847 17.7026 49.187C17.8735 49.0894 18.0469 49.0137 18.2227 48.96C18.0371 48.9209 17.8809 48.8647 17.7539 48.7915C17.6318 48.7134 17.5293 48.606 17.4463 48.4692C17.3633 48.3276 17.2974 48.147 17.2485 47.9272C17.1997 47.7075 17.1606 47.4316 17.1313 47.0996C17.1265 47.085 17.124 47.0483 17.124 46.9897C17.124 46.7993 17.1802 46.6479 17.2925 46.5356C17.4097 46.4185 17.5464 46.3281 17.7026 46.2646C17.8589 46.1963 18.02 46.1475 18.186 46.1182C18.3521 46.084 18.4863 46.0547 18.5889 46.0303C18.4082 45.9766 18.23 45.8813 18.0542 45.7446C17.8833 45.6079 17.7295 45.4395 17.5928 45.2393C17.4609 45.0391 17.3535 44.812 17.2705 44.5581C17.1875 44.3042 17.146 44.0332 17.146 43.7451C17.146 43.3643 17.2168 43.0225 17.3584 42.7197C17.5 42.417 17.7051 42.1606 17.9736 41.9507C18.2422 41.7358 18.5718 41.5723 18.9624 41.46C19.3579 41.3428 19.8047 41.2842 20.3027 41.2842C20.6982 41.2842 21.0645 41.3257 21.4014 41.4087C21.7383 41.4917 22.0312 41.6357 22.2803 41.8408C22.4658 41.748 22.6196 41.6748 22.7417 41.6211C22.8638 41.5625 22.9907 41.5186 23.1226 41.4893C23.2544 41.4551 23.4082 41.4331 23.584 41.4233C23.7646 41.4136 24.0015 41.4087 24.2944 41.4087H24.5142V42.4927H22.771ZM27.4805 42.7563C27.7539 42.4585 28.0078 42.2144 28.2422 42.0239C28.4766 41.8335 28.7036 41.6846 28.9233 41.5771C29.1479 41.4648 29.375 41.3892 29.6045 41.3501C29.834 41.3062 30.083 41.2842 30.3516 41.2842C30.7959 41.2842 31.1768 41.3354 31.4941 41.438C31.8115 41.5356 32.0801 41.6748 32.2998 41.8555C32.5195 42.0361 32.6953 42.2534 32.8271 42.5073C32.9639 42.7612 33.0664 43.042 33.1348 43.3496C33.208 43.6572 33.2568 43.9868 33.2812 44.3384C33.3057 44.6899 33.3179 45.0562 33.3179 45.437V50H31.9263V45.437C31.9263 44.895 31.9043 44.4263 31.8604 44.0308C31.8164 43.6353 31.7334 43.3081 31.6113 43.0493C31.4893 42.7905 31.3184 42.6001 31.0986 42.478C30.8789 42.3511 30.5908 42.2876 30.2344 42.2876C29.9268 42.2876 29.6289 42.3315 29.3408 42.4194C29.0527 42.5024 28.7866 42.6074 28.5425 42.7344C28.2983 42.8564 28.0835 42.9883 27.8979 43.1299C27.7173 43.2666 27.5781 43.3887 27.4805 43.4961V50H26.0889V38.4351L27.4805 38.1641V42.7563ZM37.8882 50.1465C37.4585 50.1465 37.1143 50.0757 36.8555 49.9341C36.5967 49.7876 36.3989 49.5752 36.2622 49.2969C36.1255 49.0137 36.0352 48.6646 35.9912 48.2495C35.9473 47.8296 35.9253 47.3462 35.9253 46.7993V42.1997H34.585V41.438H35.9473L36.1304 38.7939L37.3169 38.457V41.438H39.7559V42.1997H37.3169V47.8394C37.3169 48.103 37.3291 48.3203 37.3535 48.4912C37.3828 48.6572 37.4292 48.7891 37.4927 48.8867C37.5562 48.9844 37.6392 49.0527 37.7417 49.0918C37.8491 49.126 37.981 49.1431 38.1372 49.1431C38.313 49.1431 38.5156 49.0942 38.7451 48.9966C38.9795 48.894 39.2944 48.7329 39.6899 48.5132L40.1807 49.4141C39.751 49.6777 39.3506 49.8657 38.9795 49.978C38.6084 50.0903 38.2446 50.1465 37.8882 50.1465Z" fill="black" fill-opacity="0.75"/>
<path d="M35.1249 27C35.1249 27.2652 34.9965 27.5196 34.7679 27.7071C34.5393 27.8947 34.2294 28 33.9061 28H11.9686C11.6454 28 11.3354 27.8947 11.1068 27.7071C10.8783 27.5196 10.7499 27.2652 10.7499 27C10.7499 26.7348 10.8783 26.4804 11.1068 26.2929C11.3354 26.1054 11.6454 26 11.9686 26H33.9061C34.2294 26 34.5393 26.1054 34.7679 26.2929C34.9965 26.4804 35.1249 26.7348 35.1249 27ZM38.7811 17V20C38.7811 20.2652 38.6527 20.5196 38.4242 20.7071C38.1956 20.8947 37.8856 21 37.5624 21H10.7194C9.40814 21.0037 8.13074 20.6586 7.07876 20.0163C6.02678 19.374 5.25692 18.4692 4.88464 17.4375L2.73659 11.575C2.62991 11.275 2.60878 10.9589 2.67482 10.6511C2.74086 10.3433 2.89231 10.0521 3.11745 9.80001C3.34767 9.55137 3.64486 9.34978 3.98577 9.21099C4.32669 9.07221 4.70211 9.00001 5.08268 9.00001H7.703C7.88092 9.00032 8.05655 9.03298 8.21724 9.09567C8.37793 9.15835 8.51968 9.24948 8.63229 9.36251L11.3135 12H13.9339L12.5628 8.63751C12.4393 8.33637 12.4051 8.01543 12.463 7.70127C12.5208 7.38712 12.669 7.08879 12.8954 6.83099C13.1217 6.5732 13.4196 6.36336 13.7645 6.21885C14.1093 6.07434 14.4912 5.99933 14.8784 6.00001H17.453C17.6222 5.99928 17.7898 6.02785 17.9447 6.08385C18.0995 6.13985 18.2383 6.22203 18.3518 6.32501L24.6893 12H32.6874C34.3035 12 35.8535 12.5268 36.9963 13.4645C38.1391 14.4022 38.7811 15.6739 38.7811 17ZM36.3436 17C36.3396 16.2054 35.9531 15.4442 35.2683 14.8823C34.5835 14.3204 33.6558 14.0033 32.6874 14H24.1561C23.9869 14.0007 23.8193 13.9722 23.6645 13.9162C23.5096 13.8602 23.3708 13.778 23.2573 13.675L16.9198 8.00001H14.8784L16.7827 12.6875C16.8423 12.8378 16.8582 12.9976 16.8291 13.1538C16.8 13.3101 16.7267 13.4586 16.6151 13.5875C16.5026 13.7165 16.3538 13.8213 16.1814 13.8931C16.0091 13.9649 15.8182 14.0016 15.6249 14H10.7499C10.5719 13.9997 10.3963 13.967 10.2356 13.9044C10.0749 13.8417 9.93318 13.7505 9.82057 13.6375L7.13932 11H5.06745L7.2155 16.8625C7.43945 17.4817 7.90194 18.0247 8.53364 18.41C9.16535 18.7954 9.93224 19.0024 10.7194 19H36.3436V17Z" fill="#545454"/>
</svg>
