<svg width="25" height="25" viewBox="0 0 25 25" fill="none" xmlns="http://www.w3.org/2000/svg">
<path d="M2.2085 14.0897C2.98141 19.07 7.31475 22.9127 12.5012 22.9127C18.2293 22.9127 22.9158 18.2262 22.9158 12.4981C22.9158 6.76995 18.2304 2.0835 12.5022 2.0835C9.06683 2.0835 6.04391 3.7512 4.16683 6.25016V2.08454L2.08662 2.0835L2.0835 9.37516H9.37516V7.29183L6.04287 7.29079C7.50016 5.41787 9.89808 4.16683 12.5022 4.16683C17.0835 4.16683 20.8335 7.91683 20.8335 12.4981C20.8335 17.0793 17.0835 20.8304 12.5012 20.8304C8.46162 20.8304 5.07204 17.92 4.32516 14.0897H2.2085Z" fill="black"/>
<path d="M11.4604 7.29053V12.8134L14.7948 17.2895L16.4615 16.0426L13.5438 12.1874V7.29053H11.4604Z" fill="black"/>
</svg>
