<svg width="39" height="52" viewBox="0 0 39 52" fill="none" xmlns="http://www.w3.org/2000/svg">
<path d="M11.5714 7.80469V5.69531C11.5714 5.34727 11.933 5.0625 12.375 5.0625H15.0536C15.4955 5.0625 15.8571 5.34727 15.8571 5.69531V7.80469C15.8571 8.15273 15.4955 8.4375 15.0536 8.4375H12.375C11.933 8.4375 11.5714 8.15273 11.5714 7.80469ZM20.9464 8.4375H23.625C24.067 8.4375 24.4286 8.15273 24.4286 7.80469V5.69531C24.4286 5.34727 24.067 5.0625 23.625 5.0625H20.9464C20.5045 5.0625 20.1429 5.34727 20.1429 5.69531V7.80469C20.1429 8.15273 20.5045 8.4375 20.9464 8.4375ZM12.375 13.5H15.0536C15.4955 13.5 15.8571 13.2152 15.8571 12.8672V10.7578C15.8571 10.4098 15.4955 10.125 15.0536 10.125H12.375C11.933 10.125 11.5714 10.4098 11.5714 10.7578V12.8672C11.5714 13.2152 11.933 13.5 12.375 13.5ZM20.9464 13.5H23.625C24.067 13.5 24.4286 13.2152 24.4286 12.8672V10.7578C24.4286 10.4098 24.067 10.125 23.625 10.125H20.9464C20.5045 10.125 20.1429 10.4098 20.1429 10.7578V12.8672C20.1429 13.2152 20.5045 13.5 20.9464 13.5ZM15.8571 17.9297V15.8203C15.8571 15.4723 15.4955 15.1875 15.0536 15.1875H12.375C11.933 15.1875 11.5714 15.4723 11.5714 15.8203V17.9297C11.5714 18.2777 11.933 18.5625 12.375 18.5625H15.0536C15.4955 18.5625 15.8571 18.2777 15.8571 17.9297ZM20.9464 18.5625H23.625C24.067 18.5625 24.4286 18.2777 24.4286 17.9297V15.8203C24.4286 15.4723 24.067 15.1875 23.625 15.1875H20.9464C20.5045 15.1875 20.1429 15.4723 20.1429 15.8203V17.9297C20.1429 18.2777 20.5045 18.5625 20.9464 18.5625ZM33 25.1016V27H3V25.1016C3 24.7535 3.36161 24.4688 3.80357 24.4688H5.10938V1.26562C5.10938 0.564258 5.82589 0 6.71652 0H29.2835C30.1741 0 30.8906 0.564258 30.8906 1.26562V24.4688H32.1964C32.6384 24.4688 33 24.7535 33 25.1016ZM8.32366 24.416H15.8571V20.8828C15.8571 20.5348 16.2188 20.25 16.6607 20.25H19.3393C19.7812 20.25 20.1429 20.5348 20.1429 20.8828V24.416H27.6763V2.58398L8.35714 2.53125L8.32366 24.416Z" fill="#545454"/>
<path d="M8.63525 42.4043H2.5415V48H1.12061V36.4351H2.5415V41.562H8.63525V36.4351H10.0562V48H8.63525V42.4043ZM15.8276 47.3042C16.1792 47.3042 16.4844 47.2554 16.7432 47.1577C17.0068 47.0552 17.2314 46.9185 17.417 46.7476C17.6074 46.5718 17.7637 46.3691 17.8857 46.1396C18.0078 45.9102 18.1055 45.6685 18.1787 45.4146C18.252 45.1558 18.3032 44.8921 18.3325 44.6235C18.3618 44.355 18.3765 44.0962 18.3765 43.8472C18.3765 43.5981 18.3618 43.3418 18.3325 43.0781C18.3032 42.8096 18.252 42.5483 18.1787 42.2944C18.1055 42.0356 18.0078 41.7915 17.8857 41.562C17.7637 41.3325 17.6074 41.1323 17.417 40.9614C17.2314 40.7856 17.0068 40.6489 16.7432 40.5513C16.4795 40.4487 16.1743 40.3975 15.8276 40.3975C15.481 40.3975 15.1758 40.4487 14.9121 40.5513C14.6533 40.6538 14.4287 40.793 14.2383 40.9688C14.0527 41.1396 13.8965 41.3398 13.7695 41.5693C13.6475 41.7988 13.5498 42.0405 13.4766 42.2944C13.4033 42.5483 13.3521 42.8096 13.3228 43.0781C13.2935 43.3467 13.2788 43.603 13.2788 43.8472C13.2788 44.0962 13.2935 44.355 13.3228 44.6235C13.3521 44.8872 13.4033 45.1484 13.4766 45.4072C13.5498 45.6611 13.6475 45.9028 13.7695 46.1323C13.8965 46.3618 14.0527 46.5645 14.2383 46.7402C14.4287 46.9111 14.6533 47.0479 14.9121 47.1504C15.1758 47.2529 15.481 47.3042 15.8276 47.3042ZM19.7021 43.8252C19.7021 44.167 19.6777 44.5161 19.6289 44.8726C19.5801 45.2241 19.4971 45.5659 19.3799 45.8979C19.2627 46.23 19.1064 46.54 18.9111 46.8281C18.7207 47.1162 18.4814 47.3677 18.1934 47.5825C17.9102 47.7974 17.5708 47.9658 17.1753 48.0879C16.7847 48.2148 16.333 48.2783 15.8203 48.2783C15.3076 48.2783 14.8535 48.2148 14.458 48.0879C14.0674 47.9658 13.728 47.7974 13.4399 47.5825C13.1567 47.3677 12.9175 47.1162 12.7222 46.8281C12.5317 46.54 12.3779 46.23 12.2607 45.8979C12.1436 45.5659 12.0605 45.2241 12.0117 44.8726C11.9629 44.521 11.9385 44.1719 11.9385 43.8252C11.9385 43.4785 11.9629 43.1294 12.0117 42.7778C12.0605 42.4214 12.1436 42.0796 12.2607 41.7524C12.3779 41.4204 12.5317 41.1104 12.7222 40.8223C12.9175 40.5342 13.1567 40.2827 13.4399 40.0679C13.728 39.853 14.0674 39.6846 14.458 39.5625C14.8535 39.4404 15.3076 39.3794 15.8203 39.3794C16.333 39.3794 16.7847 39.4404 17.1753 39.5625C17.5708 39.6846 17.9102 39.853 18.1934 40.0679C18.4814 40.2827 18.7207 40.5342 18.9111 40.8223C19.1064 41.1104 19.2627 41.4204 19.3799 41.7524C19.4971 42.0796 19.5801 42.4214 19.6289 42.7778C19.6777 43.1294 19.7021 43.4785 19.7021 43.8252ZM24.0015 48.1465C23.5718 48.1465 23.2275 48.0757 22.9688 47.9341C22.71 47.7876 22.5122 47.5752 22.3755 47.2969C22.2388 47.0137 22.1484 46.6646 22.1045 46.2495C22.0605 45.8296 22.0386 45.3462 22.0386 44.7993V40.1997H20.6982V39.438H22.0605L22.2437 36.7939L23.4302 36.457V39.438H25.8691V40.1997H23.4302V45.8394C23.4302 46.103 23.4424 46.3203 23.4668 46.4912C23.4961 46.6572 23.5425 46.7891 23.606 46.8867C23.6694 46.9844 23.7524 47.0527 23.855 47.0918C23.9624 47.126 24.0942 47.1431 24.2505 47.1431C24.4263 47.1431 24.6289 47.0942 24.8584 46.9966C25.0928 46.894 25.4077 46.7329 25.8032 46.5132L26.2939 47.4141C25.8643 47.6777 25.4639 47.8657 25.0928 47.978C24.7217 48.0903 24.3579 48.1465 24.0015 48.1465ZM34.0796 47.2603C33.8843 47.4019 33.6621 47.5288 33.4131 47.6411C33.1641 47.7485 32.9102 47.8413 32.6514 47.9194C32.3975 47.9927 32.1509 48.0488 31.9116 48.0879C31.6724 48.127 31.4673 48.1465 31.2964 48.1465C30.6519 48.1465 30.0879 48.0391 29.6045 47.8242C29.126 47.6094 28.728 47.3091 28.4106 46.9233C28.0933 46.5327 27.854 46.0713 27.6929 45.5391C27.5366 45.002 27.4585 44.4111 27.4585 43.7666C27.4585 43.1855 27.5342 42.6265 27.6855 42.0894C27.8418 41.5474 28.0713 41.0688 28.374 40.6538C28.6768 40.2388 29.0527 39.9067 29.502 39.6577C29.9512 39.4087 30.4736 39.2842 31.0693 39.2842C31.626 39.2842 32.1143 39.3696 32.5342 39.5405C32.959 39.7065 33.3154 39.9482 33.6035 40.2656C33.8916 40.583 34.1089 40.9712 34.2554 41.4302C34.4019 41.8892 34.4751 42.4092 34.4751 42.9902C34.4751 43.1465 34.4702 43.2979 34.4604 43.4443C34.4507 43.5859 34.436 43.7202 34.4165 43.8472H28.8501C28.8501 44.4575 28.9087 44.9727 29.0259 45.3926C29.1431 45.8125 29.3115 46.1519 29.5312 46.4106C29.751 46.6694 30.0195 46.8574 30.3369 46.9746C30.6543 47.0869 31.0132 47.1431 31.4136 47.1431C31.6479 47.1431 31.8628 47.126 32.0581 47.0918C32.2534 47.0527 32.4365 46.999 32.6074 46.9307C32.7832 46.8574 32.9517 46.7671 33.1128 46.6597C33.2788 46.5522 33.4497 46.4277 33.6255 46.2861L34.0796 47.2603ZM33.2446 42.7485C33.2446 42.3579 33.1958 42.0112 33.0981 41.7085C33.0005 41.4009 32.8638 41.1421 32.688 40.9321C32.5122 40.7222 32.3022 40.5635 32.0581 40.4561C31.8188 40.3438 31.5552 40.2876 31.2671 40.2876C30.8813 40.2876 30.5444 40.3584 30.2563 40.5C29.9683 40.6416 29.7241 40.8345 29.5239 41.0786C29.3286 41.3228 29.1748 41.6108 29.0625 41.9429C28.9551 42.27 28.8843 42.624 28.8501 43.0049H33.2446V42.7485ZM37.6465 48H36.2549V36.4351L37.6465 36.1787V48Z" fill="black" fill-opacity="0.75"/>
</svg>
