<svg width="24" height="24" viewBox="0 0 24 24" fill="none" xmlns="http://www.w3.org/2000/svg">
<path d="M11 19.9999C10.6059 20.001 10.2155 19.9239 9.85139 19.773C9.4873 19.6222 9.15678 19.4005 8.879 19.1209L4.879 15.1209C4.312 14.5549 4 13.8009 4 12.9999C4 12.1989 4.312 11.4449 4.879 10.8779C6.012 9.74493 7.988 9.74493 9.121 10.8779L10.309 12.0659L13.378 6.54293C13.6658 6.02383 14.1011 5.60181 14.6289 5.33028C15.1567 5.05875 15.7532 4.94993 16.3428 5.01761C16.9325 5.08528 17.4888 5.32639 17.9413 5.71042C18.3939 6.09446 18.7223 6.60413 18.885 7.17493C18.9946 7.55375 19.0278 7.95057 18.9826 8.34233C18.9375 8.73409 18.8149 9.11297 18.622 9.45693L13.622 18.4569C13.361 18.9235 12.9806 19.3123 12.5199 19.5834C12.0591 19.8545 11.5346 19.9983 11 19.9999ZM7 11.9999C6.732 11.9999 6.482 12.1039 6.293 12.2929C6.104 12.4819 6 12.7319 6 12.9999C6 13.2679 6.104 13.5179 6.293 13.7069L10.293 17.7069C10.4026 17.816 10.536 17.8981 10.6826 17.9471C10.8293 17.996 10.9853 18.0103 11.1384 17.9889C11.2915 17.9675 11.4375 17.9109 11.5652 17.8237C11.6928 17.7364 11.7985 17.6208 11.874 17.4859L16.874 8.48593C16.9382 8.37136 16.979 8.2452 16.9941 8.11474C17.0092 7.98429 16.9983 7.85213 16.962 7.72593C16.9261 7.59919 16.8654 7.48087 16.7833 7.37785C16.7013 7.27484 16.5995 7.1892 16.484 7.12593C16.2517 7.00192 15.9802 6.97307 15.727 7.04546C15.4738 7.11786 15.2587 7.28584 15.127 7.51393L10.77 15.3549L7.708 12.2929C7.61518 12.1998 7.50482 12.1259 7.3833 12.0756C7.26179 12.0253 7.13151 11.9996 7 11.9999V11.9999Z" fill="white"/>
</svg>
