<svg width="37" height="52" viewBox="0 0 37 52" fill="none" xmlns="http://www.w3.org/2000/svg">
<path d="M5.25879 37.4824V48H3.83789V37.4824H0.483398V36.4351H8.59863V37.4824H5.25879ZM11.4624 40.8442C11.6284 40.6392 11.7969 40.4414 11.9678 40.251C12.1387 40.0605 12.3169 39.8945 12.5024 39.7529C12.6929 39.6113 12.8955 39.499 13.1104 39.416C13.3252 39.3281 13.562 39.2842 13.8208 39.2842C14.0942 39.2842 14.3384 39.3135 14.5532 39.3721V40.4854C14.5435 40.4805 14.5166 40.4756 14.4727 40.4707C14.4287 40.4658 14.3726 40.4634 14.3042 40.4634C14.2358 40.4585 14.1577 40.4561 14.0698 40.4561C13.9819 40.4561 13.894 40.4561 13.8062 40.4561C13.6011 40.4561 13.3984 40.4902 13.1982 40.5586C12.998 40.627 12.8027 40.7173 12.6123 40.8296C12.4268 40.937 12.2461 41.0615 12.0703 41.2031C11.8994 41.3398 11.7383 41.4814 11.5869 41.6279V48H10.1953V39.438H11.2427L11.4624 40.8442ZM19.0283 40.2876C18.8086 40.2876 18.5767 40.3071 18.3325 40.3462C18.0933 40.3853 17.854 40.4438 17.6147 40.522C17.3804 40.5952 17.1509 40.688 16.9263 40.8003C16.7065 40.9077 16.5063 41.0322 16.3257 41.1738L15.8276 40.207C16.106 40.0557 16.3647 39.9238 16.604 39.8115C16.8433 39.6943 17.085 39.5967 17.3291 39.5186C17.5781 39.4404 17.8369 39.3818 18.1055 39.3428C18.3789 39.3037 18.6865 39.2842 19.0283 39.2842C19.7656 39.2842 20.354 39.3647 20.7935 39.5259C21.2378 39.687 21.5747 39.936 21.8042 40.2729C22.0386 40.6099 22.1899 41.0396 22.2583 41.562C22.3315 42.0845 22.3682 42.707 22.3682 43.4297V48H21.3428L21.1377 46.6963C20.7764 47.2041 20.3467 47.5728 19.8486 47.8022C19.3506 48.0317 18.7915 48.1465 18.1714 48.1465C17.7319 48.1465 17.334 48.0903 16.9775 47.978C16.626 47.8657 16.3257 47.6997 16.0767 47.48C15.8276 47.2554 15.6348 46.9771 15.498 46.645C15.3662 46.313 15.3003 45.9272 15.3003 45.4878C15.3003 45.063 15.3809 44.6821 15.542 44.3452C15.7031 44.0083 15.9204 43.7227 16.1938 43.4883C16.4673 43.2539 16.7847 43.0757 17.146 42.9536C17.5073 42.8267 17.8882 42.7632 18.2886 42.7632C18.689 42.7632 19.0527 42.7827 19.3799 42.8218C19.7119 42.8608 19.9951 42.9048 20.2295 42.9536C20.4688 42.9976 20.6543 43.0391 20.7861 43.0781L20.9766 43.1294C20.9766 42.6265 20.9668 42.1943 20.9473 41.833C20.9277 41.4717 20.8569 41.1787 20.7349 40.9541C20.6128 40.7246 20.4199 40.5562 20.1562 40.4487C19.8926 40.3413 19.5166 40.2876 19.0283 40.2876ZM18.5156 47.1431C18.96 47.1431 19.3799 47.0479 19.7754 46.8574C20.1758 46.667 20.5762 46.3862 20.9766 46.0151V43.8325C20.7715 43.8032 20.5713 43.7788 20.376 43.7593C20.2051 43.7397 20.022 43.7227 19.8267 43.708C19.6313 43.6885 19.4482 43.6787 19.2773 43.6787C18.9258 43.6787 18.5938 43.6982 18.2812 43.7373C17.9688 43.7715 17.6953 43.8496 17.4609 43.9717C17.2266 44.0938 17.041 44.2695 16.9043 44.499C16.7676 44.7285 16.6992 45.0337 16.6992 45.4146C16.6992 45.7563 16.7432 46.0396 16.8311 46.2642C16.9189 46.4839 17.041 46.6597 17.1973 46.7915C17.3584 46.9233 17.5488 47.0161 17.7686 47.0698C17.9932 47.1187 18.2422 47.1431 18.5156 47.1431ZM24.624 48V39.438H25.957V48H24.624ZM24.4995 37.292C24.4995 37.1748 24.519 37.0674 24.5581 36.9697C24.6021 36.8672 24.6606 36.7769 24.7339 36.6987C24.8071 36.6206 24.8926 36.5596 24.9902 36.5156C25.0879 36.4717 25.1929 36.4497 25.3052 36.4497C25.4224 36.4497 25.5298 36.4741 25.6274 36.5229C25.7251 36.5669 25.8105 36.6279 25.8838 36.7061C25.957 36.7842 26.0132 36.8745 26.0522 36.9771C26.0913 37.0796 26.1108 37.1846 26.1108 37.292C26.1108 37.4092 26.0889 37.519 26.0449 37.6216C26.0059 37.7192 25.9497 37.8071 25.8765 37.8853C25.8032 37.9634 25.7178 38.0244 25.6201 38.0684C25.5225 38.1123 25.4175 38.1343 25.3052 38.1343C25.188 38.1343 25.0806 38.1123 24.9829 38.0684C24.8853 38.0195 24.7998 37.9561 24.7266 37.8779C24.6533 37.7998 24.5972 37.7119 24.5581 37.6143C24.519 37.5117 24.4995 37.4043 24.4995 37.292ZM29.4727 40.8076C29.6191 40.627 29.8145 40.4463 30.0586 40.2656C30.3027 40.085 30.5688 39.9214 30.8569 39.7749C31.1499 39.6284 31.4526 39.5112 31.7651 39.4233C32.0825 39.3306 32.3853 39.2842 32.6733 39.2842C33.186 39.2842 33.6182 39.3623 33.9697 39.5186C34.3262 39.6699 34.6167 39.8921 34.8413 40.1851C35.0659 40.4731 35.2271 40.8271 35.3247 41.2471C35.4272 41.667 35.4785 42.1431 35.4785 42.6753V48H34.0869V42.6753C34.0869 42.3042 34.0576 41.9722 33.999 41.6792C33.9404 41.3813 33.8452 41.1299 33.7134 40.9248C33.5815 40.7197 33.4106 40.5635 33.2007 40.4561C32.9907 40.3438 32.7319 40.2876 32.4243 40.2876C32.1899 40.2876 31.9336 40.334 31.6553 40.4268C31.377 40.5195 31.1084 40.6318 30.8496 40.7637C30.5908 40.8955 30.354 41.0347 30.1392 41.1812C29.9243 41.3276 29.7656 41.4521 29.6631 41.5547V48H28.2715V39.438H29.2969L29.4727 40.8076Z" fill="black" fill-opacity="0.75"/>
<path d="M11.3335 20C12.4381 20 13.3335 19.1605 13.3335 18.125C13.3335 17.0895 12.4381 16.25 11.3335 16.25C10.2289 16.25 9.3335 17.0895 9.3335 18.125C9.3335 19.1605 10.2289 20 11.3335 20Z" fill="#545454"/>
<path d="M20.6665 20C21.7711 20 22.6665 19.1605 22.6665 18.125C22.6665 17.0895 21.7711 16.25 20.6665 16.25C19.5619 16.25 18.6665 17.0895 18.6665 18.125C18.6665 19.1605 19.5619 20 20.6665 20Z" fill="#545454"/>
<path d="M16.0002 2.5C10.6668 2.5 5.3335 3.125 5.3335 7.5V19.375C5.3335 21.7875 7.42683 23.75 10.0002 23.75L8.00016 25.625V26.25H10.6668L13.3335 23.75H18.6668L21.3335 26.25H24.0002V25.625L22.0002 23.75C24.5735 23.75 26.6668 21.7875 26.6668 19.375V7.5C26.6668 3.125 21.3335 2.5 16.0002 2.5ZM16.0002 5C20.6802 5 22.6135 5.6 23.4268 6.25H8.5735C9.38683 5.6 11.3202 5 16.0002 5ZM8.00016 8.75H14.6668V12.5H8.00016V8.75ZM24.0002 19.375C24.0002 20.4125 23.1068 21.25 22.0002 21.25H10.0002C8.8935 21.25 8.00016 20.4125 8.00016 19.375V15H24.0002V19.375ZM24.0002 12.5H17.3335V8.75H24.0002V12.5Z" fill="#545454"/>
</svg>
