<svg width="21" height="16" viewBox="0 0 21 16" fill="none" xmlns="http://www.w3.org/2000/svg">
<path d="M16.1212 3.76L21 8.016L16.1212 12.24V9.408H8.82071V6.592H16.1212V3.76ZM13.1869 11.952L15.0606 13.664C13.2222 15.2213 11.2306 16 9.08586 16C6.52862 16 4.375 15.2347 2.625 13.704C0.875 12.1733 0 10.2613 0 7.968C0 6.528 0.400673 5.19467 1.20202 3.968C2.00337 2.74133 3.0846 1.77333 4.44571 1.064C5.80682 0.354667 7.28283 0 8.87374 0C11.0421 0 13.0985 0.789333 15.0429 2.368L13.1869 4.064C11.8434 2.95467 10.4116 2.4 8.89141 2.4C7.13552 2.4 5.65362 2.95467 4.44571 4.064C3.23779 5.17333 2.63384 6.528 2.63384 8.128C2.63384 9.62133 3.25547 10.9067 4.49874 11.984C5.742 13.0613 7.20034 13.6 8.87374 13.6C10.4175 13.6 11.8552 13.0507 13.1869 11.952Z" fill="#EAEAEA"/>
</svg>
